<svg width="20" height="21" viewBox="0 0 20 21" fill="none" xmlns="http://www.w3.org/2000/svg">
<path d="M12.9734 3C12.7631 2.99998 12.5583 2.99995 12.3848 3.01413C12.1943 3.02969 11.9695 3.06641 11.7434 3.18166C11.4297 3.34145 11.1748 3.59642 11.015 3.91002C10.8997 4.13621 10.863 4.36099 10.8475 4.55148C10.8333 4.72494 10.8333 4.92977 10.8333 5.14009V7.52659C10.8333 7.7369 10.8333 7.94173 10.8475 8.1152C10.863 8.30569 10.8997 8.53047 11.015 8.75666C11.1748 9.07026 11.4297 9.32523 11.7434 9.48501C11.9695 9.60026 12.1943 9.63699 12.3848 9.65255C12.5583 9.66672 12.7631 9.6667 12.9734 9.66667H15.3599C15.5702 9.6667 15.7751 9.66672 15.9485 9.65255C16.139 9.63699 16.3638 9.60026 16.59 9.48501C16.9036 9.32523 17.1586 9.07026 17.3183 8.75666C17.4336 8.53047 17.4703 8.30569 17.4859 8.1152C17.5001 7.94173 17.5 7.7369 17.5 7.52659V5.14009C17.5 4.92977 17.5001 4.72494 17.4859 4.55148C17.4703 4.36099 17.4336 4.13621 17.3183 3.91002C17.1586 3.59642 16.9036 3.34145 16.59 3.18166C16.3638 3.06641 16.139 3.02969 15.9485 3.01413C15.7751 2.99995 15.5702 2.99998 15.3599 3L12.9734 3Z" fill="white"/>
<path d="M4.64009 11.3333C4.42977 11.3333 4.22494 11.3333 4.05148 11.3475C3.86099 11.363 3.63621 11.3997 3.41002 11.515C3.09642 11.6748 2.84145 11.9297 2.68166 12.2434C2.56641 12.4695 2.52969 12.6943 2.51413 12.8848C2.49995 13.0583 2.49998 13.2631 2.5 13.4734L2.5 15.8599C2.49998 16.0702 2.49995 16.2751 2.51413 16.4485C2.52969 16.639 2.56641 16.8638 2.68166 17.09C2.84145 17.4036 3.09642 17.6586 3.41002 17.8183C3.63621 17.9336 3.86099 17.9703 4.05148 17.9859C4.22494 18.0001 4.42977 18 4.64009 18H7.02659C7.2369 18 7.44173 18.0001 7.6152 17.9859C7.80569 17.9703 8.03047 17.9336 8.25666 17.8183C8.57026 17.6586 8.82523 17.4036 8.98501 17.09C9.10026 16.8638 9.13699 16.639 9.15255 16.4485C9.16672 16.2751 9.1667 16.0703 9.16667 15.8599V13.4734C9.1667 13.2631 9.16672 13.0583 9.15255 12.8848C9.13699 12.6943 9.10026 12.4695 8.98501 12.2434C8.82523 11.9297 8.57026 11.6748 8.25666 11.515C8.03047 11.3997 7.80569 11.363 7.6152 11.3475C7.44173 11.3333 7.2369 11.3333 7.02659 11.3333H4.64009Z" fill="white"/>
<path d="M12.9734 11.3333C12.7631 11.3333 12.5583 11.3333 12.3848 11.3475C12.1943 11.363 11.9695 11.3997 11.7434 11.515C11.4297 11.6748 11.1748 11.9297 11.015 12.2434C10.8997 12.4695 10.863 12.6943 10.8475 12.8848C10.8333 13.0583 10.8333 13.2631 10.8333 13.4734V15.8599C10.8333 16.0702 10.8333 16.2751 10.8475 16.4485C10.863 16.639 10.8997 16.8638 11.015 17.09C11.1748 17.4036 11.4297 17.6586 11.7434 17.8183C11.9695 17.9336 12.1943 17.9703 12.3848 17.9859C12.5583 18.0001 12.7631 18 12.9734 18H15.3599C15.5702 18 15.7751 18.0001 15.9485 17.9859C16.139 17.9703 16.3638 17.9336 16.59 17.8183C16.9036 17.6586 17.1586 17.4036 17.3183 17.09C17.4336 16.8638 17.4703 16.639 17.4859 16.4485C17.5001 16.2751 17.5 16.0702 17.5 15.8599V13.4734C17.5 13.2631 17.5001 13.0583 17.4859 12.8848C17.4703 12.6943 17.4336 12.4695 17.3183 12.2434C17.1586 11.9297 16.9036 11.6748 16.59 11.515C16.3638 11.3997 16.139 11.363 15.9485 11.3475C15.7751 11.3333 15.5702 11.3333 15.3599 11.3333H12.9734Z" fill="white"/>
<path d="M4.64009 3C4.42977 2.99998 4.22494 2.99995 4.05148 3.01413C3.86099 3.02969 3.63621 3.06641 3.41002 3.18166C3.09642 3.34145 2.84145 3.59642 2.68166 3.91002C2.56641 4.13621 2.52969 4.36099 2.51413 4.55148C2.49995 4.72494 2.49998 4.92976 2.5 5.14008L2.5 7.52659C2.49998 7.7369 2.49995 7.94173 2.51413 8.1152C2.52969 8.30569 2.56641 8.53047 2.68166 8.75666C2.84145 9.07026 3.09642 9.32523 3.41002 9.48502C3.63621 9.60026 3.86099 9.63699 4.05148 9.65255C4.22494 9.66672 4.42975 9.6667 4.64006 9.66667H7.02659C7.23689 9.6667 7.44174 9.66672 7.6152 9.65255C7.80569 9.63699 8.03047 9.60026 8.25666 9.48502C8.57026 9.32523 8.82523 9.07026 8.98502 8.75666C9.10026 8.53047 9.13699 8.30569 9.15255 8.1152C9.16672 7.94174 9.1667 7.73692 9.16667 7.52661V5.14009C9.1667 4.92978 9.16672 4.72494 9.15255 4.55148C9.13699 4.36099 9.10026 4.13621 8.98502 3.91002C8.82523 3.59642 8.57026 3.34145 8.25666 3.18166C8.03047 3.06641 7.80569 3.02969 7.6152 3.01413C7.44173 2.99995 7.23691 2.99998 7.0266 3L4.64009 3Z" fill="white"/>
</svg>
