<svg width="27" height="24" viewBox="0 0 27 24" fill="none" xmlns="http://www.w3.org/2000/svg">
<path fill-rule="evenodd" clip-rule="evenodd" d="M12.8181 19.392V7.50298C12.8181 6.81298 12.4308 6.17198 11.7926 5.80698L7.429 3.30698C5.97591 2.47498 4.09082 3.43198 4.09082 5.00298V16.891C4.09082 17.581 4.47809 18.222 5.11627 18.587L9.47991 21.087C10.933 21.92 12.8181 20.962 12.8181 19.392Z" stroke="#FF5C5C" stroke-width="1.5" stroke-linecap="round" stroke-linejoin="round"/>
<path d="M17.1816 11H23.7271" stroke="#FF5C5C" stroke-width="1.5" stroke-linecap="round" stroke-linejoin="round"/>
<path d="M21.5454 13L23.7272 11L21.5454 9" stroke="#FF5C5C" stroke-width="1.5" stroke-linecap="round" stroke-linejoin="round"/>
<path d="M12.8184 19H17.182C18.3875 19 19.3638 18.105 19.3638 17V16" stroke="#FF5C5C" stroke-width="1.5" stroke-linecap="round" stroke-linejoin="round"/>
<path d="M19.3639 6V5C19.3639 3.895 18.3875 3 17.182 3H6.27295" stroke="#FF5C5C" stroke-width="1.5" stroke-linecap="round" stroke-linejoin="round"/>
</svg>
