<svg width="20" height="20" viewBox="0 0 20 20" fill="none" xmlns="http://www.w3.org/2000/svg">
<path d="M10.0002 8.33341C11.8419 8.33341 13.3335 6.84175 13.3335 5.00008C13.3335 3.15841 11.8419 1.66675 10.0002 1.66675C8.15855 1.66675 6.66688 3.15841 6.66688 5.00008C6.66688 6.84175 8.15855 8.33341 10.0002 8.33341ZM10.0002 3.33341C10.9169 3.33341 11.6669 4.08341 11.6669 5.00008C11.6669 5.91675 10.9169 6.66675 10.0002 6.66675C9.08355 6.66675 8.33355 5.91675 8.33355 5.00008C8.33355 4.08341 9.08355 3.33341 10.0002 3.33341ZM15.3252 10.4667C13.9252 9.75008 12.1086 9.16675 10.0002 9.16675C7.89188 9.16675 6.07522 9.75008 4.67522 10.4667C4.2686 10.6762 3.92797 10.9942 3.69113 11.3855C3.4543 11.7768 3.33052 12.226 3.33355 12.6834V18.3334H5.00022V12.6834C5.00022 12.3667 5.16688 12.0834 5.41688 11.9501C6.42522 11.4417 8.02522 10.8334 10.0002 10.8334C10.6336 10.8334 11.2252 10.8917 11.7752 11.0001L10.4836 13.7501H8.12522C6.85855 13.7501 5.83355 14.7751 5.83355 16.0417C5.83355 17.3084 6.85855 18.3334 8.12522 18.3334H15.0002C15.9169 18.3334 16.6669 17.5834 16.6669 16.6667V12.6834C16.6669 11.7501 16.1585 10.8917 15.3252 10.4667ZM9.11688 16.6667H8.12522C7.78355 16.6667 7.50022 16.3834 7.50022 16.0417C7.50022 15.7001 7.78355 15.4167 8.12522 15.4167H9.70022L9.11688 16.6667ZM15.0002 16.6667H10.9585L13.4086 11.4417C13.8586 11.6084 14.2502 11.7834 14.5835 11.9501C14.8335 12.0834 15.0002 12.3667 15.0002 12.6834V16.6667Z" fill="white"/>
</svg>
