<svg width="25" height="24" viewBox="0 0 25 24" fill="none" xmlns="http://www.w3.org/2000/svg">
<path d="M9.61247 19.7494H6.70636C5.67869 19.7494 4.69312 19.3412 3.96645 18.6145C3.23978 17.8878 2.83154 16.9023 2.83154 15.8746V7.15626C2.83154 6.1286 3.23978 5.14302 3.96645 4.41635C4.69312 3.68969 5.67869 3.28145 6.70636 3.28145H17.3621C18.3898 3.28145 19.3753 3.68969 20.102 4.41635C20.8287 5.14302 21.2369 6.1286 21.2369 7.15626V10.0624M8.64376 2.31274V4.25015M15.4247 2.31274V4.25015M2.83154 8.12496H21.2369M18.8151 15.5288L17.3621 16.9818" stroke="black" stroke-width="1.45306" stroke-linecap="round" stroke-linejoin="round"/>
<path d="M17.3621 21.6868C20.0371 21.6868 22.2056 19.5183 22.2056 16.8433C22.2056 14.1683 20.0371 11.9998 17.3621 11.9998C14.6871 11.9998 12.5186 14.1683 12.5186 16.8433C12.5186 19.5183 14.6871 21.6868 17.3621 21.6868Z" stroke="black" stroke-width="1.45306" stroke-linecap="round" stroke-linejoin="round"/>
</svg>
