<svg width="20" height="20" viewBox="0 0 20 20" fill="none" xmlns="http://www.w3.org/2000/svg">
<path fill-rule="evenodd" clip-rule="evenodd" d="M10.4165 1.66675C10.991 1.66675 11.5112 1.89929 11.8881 2.27538C11.9027 2.28995 11.9171 2.30474 11.9312 2.31973C12.2644 2.6724 12.4757 3.14135 12.4979 3.6593L12.4986 3.67679C12.4994 3.70112 12.4998 3.72555 12.4998 3.75008V3.76197C12.4998 3.79584 12.5204 3.82629 12.5517 3.83927C12.583 3.85225 12.6191 3.84527 12.6431 3.8213L12.6515 3.8129C12.6688 3.79555 12.6864 3.77857 12.7042 3.76197L12.7171 3.75008C13.099 3.39953 13.58 3.21736 14.065 3.20355C14.0856 3.20297 14.1062 3.20268 14.1268 3.20271C14.6593 3.20327 15.1915 3.40666 15.5978 3.8129L16.187 4.40215C16.5933 4.80839 16.7967 5.34064 16.7972 5.87308C16.7972 5.8937 16.797 5.91432 16.7964 5.93493C16.7826 6.41987 16.6004 6.90091 16.2498 7.28287L16.238 7.29571C16.2213 7.31351 16.2044 7.33109 16.187 7.34843L16.1786 7.35684C16.1546 7.38081 16.1477 7.41689 16.1607 7.4482C16.1736 7.47949 16.2041 7.50008 16.238 7.50008H16.2498C16.2744 7.50008 16.2988 7.50051 16.3231 7.50135L16.3406 7.50202C16.8586 7.52423 17.3275 7.73555 17.6802 8.06869C17.6952 8.08286 17.71 8.09724 17.7245 8.11184C18.1006 8.48873 18.3332 9.00891 18.3332 9.58342V10.4167C18.3332 10.9912 18.1006 11.5114 17.7245 11.8883C17.71 11.9029 17.6952 11.9173 17.6802 11.9315C17.3275 12.2646 16.8586 12.4759 16.3406 12.4981L16.3231 12.4988C16.2988 12.4997 16.2744 12.5001 16.2498 12.5001H16.238C16.2041 12.5001 16.1736 12.5207 16.1607 12.552C16.1477 12.5833 16.1546 12.6194 16.1786 12.6433L16.187 12.6517C16.2044 12.6691 16.2213 12.6867 16.238 12.7045L16.2498 12.7173C16.6004 13.0992 16.7826 13.5803 16.7964 14.0652C16.797 14.0858 16.7972 14.1065 16.7972 14.1271C16.7967 14.6595 16.5933 15.1918 16.187 15.598L15.5978 16.1873C15.1915 16.5935 14.6593 16.7969 14.1268 16.7975C14.1062 16.7975 14.0856 16.7972 14.065 16.7966C13.58 16.7828 13.099 16.6006 12.7171 16.2501L12.7042 16.2382C12.6864 16.2216 12.6688 16.2046 12.6515 16.1873L12.6431 16.1789C12.6191 16.1549 12.583 16.1479 12.5517 16.1609C12.5204 16.1739 12.4998 16.2043 12.4998 16.2382V16.2501C12.4998 16.2746 12.4994 16.299 12.4986 16.3234L12.4979 16.3409C12.4757 16.8588 12.2644 17.3278 11.9312 17.6804C11.9171 17.6954 11.9027 17.7102 11.8881 17.7248C11.5112 18.1009 10.991 18.3334 10.4165 18.3334H9.58317C9.00867 18.3334 8.48848 18.1009 8.1116 17.7248C8.097 17.7102 8.08261 17.6954 8.06844 17.6804C7.73531 17.3278 7.52399 16.8588 7.50178 16.3409L7.5011 16.3234C7.50026 16.299 7.49984 16.2746 7.49984 16.2501V16.2382C7.49984 16.2043 7.47925 16.1739 7.44796 16.1609C7.41664 16.1479 7.38056 16.1549 7.35659 16.1789L7.34819 16.1873C7.33084 16.2046 7.31326 16.2216 7.29546 16.2382L7.28262 16.2501C6.90067 16.6006 6.41963 16.7828 5.93469 16.7966C5.91407 16.7972 5.89346 16.7975 5.87283 16.7975C5.3404 16.7969 4.80814 16.5935 4.40191 16.1873L3.81265 15.598C3.40642 15.1918 3.20302 14.6595 3.20246 14.1271C3.20244 14.1065 3.20272 14.0858 3.20331 14.0652C3.21711 13.5803 3.39929 13.0992 3.74984 12.7173L3.76172 12.7045C3.77833 12.6867 3.79531 12.6691 3.81265 12.6517L3.82106 12.6433C3.84503 12.6194 3.85201 12.5833 3.83902 12.552C3.82605 12.5207 3.7956 12.5001 3.76172 12.5001H3.74984C3.72531 12.5001 3.70088 12.4997 3.67655 12.4988L3.65906 12.4981C3.14111 12.4759 2.67215 12.2646 2.31949 11.9315C2.30449 11.9173 2.28971 11.9029 2.27513 11.8883C1.89904 11.5114 1.6665 10.9912 1.6665 10.4167V9.58342C1.6665 9.00891 1.89904 8.48873 2.27513 8.11184C2.28971 8.09724 2.30449 8.08286 2.31949 8.06869C2.67215 7.73555 3.14111 7.52423 3.65906 7.50202L3.67655 7.50135C3.70088 7.50051 3.72531 7.50008 3.74984 7.50008H3.76172C3.7956 7.50008 3.82605 7.47949 3.83902 7.4482C3.85201 7.41689 3.84503 7.38081 3.82106 7.35684L3.81265 7.34843C3.79531 7.33109 3.77833 7.31351 3.76172 7.29571L3.74984 7.28287C3.39929 6.90091 3.21711 6.41987 3.20331 5.93493C3.20272 5.91432 3.20244 5.8937 3.20246 5.87308C3.20302 5.34064 3.40642 4.80839 3.81265 4.40215L4.40191 3.8129C4.80814 3.40666 5.3404 3.20327 5.87283 3.20271C5.89346 3.20268 5.91408 3.20297 5.93469 3.20355C6.41963 3.21736 6.90067 3.39953 7.28262 3.75008L7.29547 3.76197C7.31326 3.77857 7.33084 3.79555 7.34819 3.8129L7.35659 3.8213C7.38056 3.84527 7.41665 3.85225 7.44796 3.83927C7.47925 3.82629 7.49984 3.79584 7.49984 3.76197V3.75008C7.49984 3.72555 7.50026 3.70112 7.5011 3.67679L7.50178 3.6593C7.52399 3.14135 7.73531 2.6724 8.06844 2.31973C8.08261 2.30474 8.097 2.28995 8.1116 2.27538C8.48848 1.89929 9.00867 1.66675 9.58317 1.66675H10.4165ZM9.1665 16.2501C9.1665 16.4802 9.35305 16.6667 9.58317 16.6667H10.4165C10.6466 16.6667 10.8332 16.4802 10.8332 16.2501V16.2382C10.8332 15.5219 11.2675 14.8891 11.9133 14.6213C12.5605 14.353 13.3154 14.4942 13.8216 15.0004L13.83 15.0088C13.9927 15.1715 14.2565 15.1715 14.4193 15.0088L15.0085 14.4195C15.1712 14.2568 15.1712 13.993 15.0085 13.8302L15.0001 13.8218C14.4939 13.3156 14.3527 12.5607 14.6211 11.9135C14.8889 11.2677 15.5217 10.8334 16.238 10.8334H16.2498C16.48 10.8334 16.6665 10.6469 16.6665 10.4167V9.58342C16.6665 9.3533 16.48 9.16675 16.2498 9.16675H16.238C15.5217 9.16675 14.8889 8.73243 14.6211 8.08663C14.3527 7.43947 14.4939 6.68452 15.0001 6.17832L15.0085 6.16992C15.1712 6.0072 15.1712 5.74338 15.0085 5.58066L14.4193 4.99141C14.2565 4.82869 13.9927 4.82869 13.83 4.99141L13.8216 4.99981C13.3154 5.506 12.5605 5.64717 11.9133 5.37882C11.2675 5.11101 10.8332 4.47826 10.8332 3.76197V3.75008C10.8332 3.51996 10.6466 3.33341 10.4165 3.33341H9.58317C9.35305 3.33341 9.1665 3.51996 9.1665 3.75008V3.76197C9.1665 4.47826 8.7322 5.11101 8.08637 5.37882C7.43922 5.64717 6.68427 5.506 6.17808 4.99981L6.16968 4.99141C6.00696 4.82869 5.74314 4.82869 5.58042 4.99141L4.99116 5.58066C4.82845 5.74338 4.82845 6.0072 4.99116 6.16992L4.99956 6.17832C5.50577 6.68452 5.64693 7.43947 5.37857 8.08663C5.11076 8.73243 4.47802 9.16675 3.76172 9.16675H3.74984C3.51972 9.16675 3.33317 9.3533 3.33317 9.58342V10.4167C3.33317 10.6469 3.51972 10.8334 3.74984 10.8334H3.76172C4.47802 10.8334 5.11076 11.2677 5.37856 11.9135C5.64693 12.5607 5.50577 13.3156 4.99957 13.8218L4.99116 13.8302C4.82845 13.993 4.82845 14.2568 4.99116 14.4195L5.58042 15.0088C5.74314 15.1715 6.00696 15.1715 6.16967 15.0088L6.17808 15.0004C6.68427 14.4942 7.43922 14.353 8.08637 14.6213C8.73217 14.8891 9.1665 15.5219 9.1665 16.2382V16.2501Z" fill="#595959"/>
<path fill-rule="evenodd" clip-rule="evenodd" d="M9.99984 11.6667C10.9203 11.6667 11.6665 10.9206 11.6665 10.0001C11.6665 9.07961 10.9203 8.33341 9.99984 8.33341C9.07936 8.33341 8.33317 9.07961 8.33317 10.0001C8.33317 10.9206 9.07936 11.6667 9.99984 11.6667ZM9.99984 13.3334C11.8408 13.3334 13.3332 11.841 13.3332 10.0001C13.3332 8.15913 11.8408 6.66675 9.99984 6.66675C8.15889 6.66675 6.6665 8.15913 6.6665 10.0001C6.6665 11.841 8.15889 13.3334 9.99984 13.3334Z" fill="#595959"/>
</svg>
