<svg width="730" height="1024" viewBox="0 0 730 1024" fill="none" xmlns="http://www.w3.org/2000/svg">
<g clip-path="url(#clip0_156_3695)">
<path d="M526.409 627.775C600.405 584.033 600.405 476.967 526.409 433.225L-207.256 -0.474156C-282.583 -45.0032 -377.759 9.2961 -377.759 96.8007V964.199C-377.759 1051.7 -282.583 1106 -207.256 1061.47L526.409 627.775Z" fill="#0694A2" fill-opacity="0.37"/>
<path d="M559.791 869.727C627.422 827.235 624.729 727.786 554.896 689.017L-214.334 261.966C-285.423 222.5 -372.462 275.331 -370.261 356.61L-346.016 1251.73C-343.815 1333.01 -254.044 1381.05 -185.195 1337.79L559.791 869.727Z" fill="#0694A2" fill-opacity="0.37"/>
<path d="M365.5 727C483.965 727 580 630.965 580 512.5C580 394.035 483.965 298 365.5 298C247.035 298 151 394.035 151 512.5C151 630.965 247.035 727 365.5 727Z" fill="#0694A2"/>
<path d="M494.33 560.183C494.33 560.183 523.59 553.183 524.56 551.973L500.49 489.973C498.155 483.603 494.422 477.838 489.564 473.103C484.706 468.368 478.847 464.783 472.42 462.613C463.292 459.435 453.661 457.947 444 458.223L403.37 456.073C392.182 456.764 381.262 459.785 371.31 464.943C357.651 472.064 346.981 483.826 341.22 498.113L323 543.623L369 553.233L370.75 602.133L363.82 669.603H490.68L489.8 562.663L494.33 560.183Z" fill="#0694A2"/>
<g opacity="0.3">
<path d="M519.55 543.873C519.55 544.013 512 546.493 502.55 549.403C493.1 552.313 485.48 554.573 485.44 554.403C485.4 554.233 492.98 551.783 502.44 548.863C511.9 545.943 519.51 543.733 519.55 543.873Z" fill="white"/>
</g>
<path d="M386.78 500.292C386.486 499.962 386.224 499.604 386 499.222C385.54 498.522 384.83 497.522 383.91 496.322C382.834 494.927 381.682 493.592 380.46 492.322C378.965 490.76 377.375 489.291 375.7 487.922C374.004 486.573 372.231 485.324 370.39 484.182C368.878 483.265 367.319 482.428 365.72 481.672C364.36 481.022 363.23 480.542 362.44 480.232C362.017 480.1 361.611 479.919 361.23 479.692C361.666 479.772 362.094 479.889 362.51 480.042C363.651 480.416 364.772 480.846 365.87 481.332C367.506 482.053 369.098 482.868 370.64 483.772C372.511 484.903 374.308 486.152 376.02 487.512C377.715 488.897 379.316 490.393 380.81 491.992C382.022 493.303 383.154 494.686 384.2 496.132C384.923 497.094 385.591 498.095 386.2 499.132C386.435 499.497 386.629 499.886 386.78 500.292Z" fill="#263238"/>
<path d="M380.79 515.093C380.93 515.093 379.51 530.033 377.62 548.433C375.73 566.833 374.08 581.743 373.94 581.723C373.8 581.703 375.21 566.783 377.11 548.383C379.01 529.983 380.68 515.073 380.79 515.093Z" fill="#263238"/>
<path d="M480.68 487.473C480.409 486.485 480.192 485.484 480.03 484.473C479.522 482.045 478.853 479.653 478.03 477.313C477.184 474.975 476.182 472.696 475.03 470.493C474.508 469.602 474.034 468.684 473.61 467.743C473.61 467.743 473.83 467.953 474.14 468.393C474.45 468.833 474.87 469.493 475.36 470.313C476.613 472.488 477.67 474.77 478.52 477.133C479.368 479.494 480.001 481.927 480.41 484.403C480.56 485.353 480.65 486.123 480.69 486.663C480.724 486.932 480.721 487.204 480.68 487.473Z" fill="#263238"/>
<path d="M483.24 539.623C483.119 539.14 483.039 538.649 483 538.153C482.87 537.213 482.72 535.833 482.55 534.153C482.22 530.753 481.87 526.033 481.69 520.823C481.51 515.613 481.52 510.873 481.61 507.453C481.66 505.743 481.71 504.363 481.77 503.453C481.77 502.956 481.82 502.46 481.92 501.973C481.978 502.464 481.998 502.959 481.98 503.453V507.473C481.98 510.883 482.03 515.603 482.21 520.813C482.39 526.023 482.68 530.723 482.92 534.133C483.03 535.763 483.12 537.133 483.2 538.133C483.262 538.627 483.275 539.126 483.24 539.623Z" fill="#263238"/>
<path d="M421.8 530.892C411.134 531.513 400.435 531.312 389.8 530.292V534.472H421.8V530.892Z" fill="white"/>
<g opacity="0.3">
<path d="M453.68 461.752C453.748 461.957 453.792 462.168 453.81 462.382L454.09 464.222C454.29 465.842 454.57 468.222 454.8 471.222C455.28 477.222 455.7 485.772 455.8 495.862V496.242L455.45 496.082C449.07 492.972 441.92 489.592 434.45 485.872L398.08 467.672L387.08 462.102L384.08 460.572L383.32 460.152C383.227 460.114 383.14 460.064 383.06 460.002C383.158 460.026 383.252 460.063 383.34 460.112L384.13 460.472L387.13 461.922L398.19 467.342L434.68 485.402C442.12 489.122 449.26 492.512 455.68 495.642L455.34 495.852C455.23 485.782 454.88 477.242 454.48 471.232C454.3 468.232 454.06 465.862 453.91 464.232C453.82 463.452 453.75 462.832 453.7 462.382C453.683 462.173 453.676 461.963 453.68 461.752Z" fill="white"/>
</g>
<g opacity="0.3">
<path d="M377.23 548.133C377.05 548.129 376.871 548.099 376.7 548.043L375.21 547.693L369.74 546.303C365.12 545.113 358.74 543.503 351.68 541.793C344.62 540.083 338.2 538.603 333.55 537.543L328.05 536.283L326.56 535.923C326.385 535.888 326.214 535.834 326.05 535.763C326.226 535.739 326.404 535.739 326.58 535.763L328.09 536.033C329.4 536.273 331.29 536.653 333.63 537.133C338.3 538.133 344.73 539.523 351.8 541.233C358.87 542.943 365.24 544.623 369.8 545.893C372.1 546.533 373.96 547.063 375.23 547.443L376.7 547.893C376.885 547.953 377.063 548.034 377.23 548.133Z" fill="white"/>
</g>
<path d="M448.05 454.182C448.05 454.032 450.8 455.472 453.45 459.402C456.1 463.332 458.51 469.402 459.88 476.402C460.51 479.703 460.901 483.045 461.05 486.402C461.05 487.942 461.12 489.402 461.05 490.772C460.98 492.142 460.96 493.412 460.84 494.572C460.72 495.732 460.6 496.762 460.5 497.692C460.4 498.622 460.22 499.382 460.11 500.022C460.048 500.709 459.886 501.383 459.63 502.022C459.568 501.355 459.595 500.683 459.71 500.022L459.92 497.682C459.98 496.752 460.04 495.682 460.1 494.572C460.16 493.462 460.1 492.162 460.19 490.812C460.28 489.462 460.12 488.012 460.07 486.502C459.867 483.213 459.456 479.94 458.84 476.702C457.794 470.816 455.766 465.147 452.84 459.932C451.9 458.393 450.782 456.97 449.51 455.692C448.996 455.216 448.509 454.712 448.05 454.182Z" fill="#263238"/>
<path d="M402.58 454.473C401.963 455.531 401.257 456.534 400.47 457.473C398.563 460.212 396.982 463.166 395.76 466.273C394.008 470.9 392.835 475.727 392.27 480.643C391.54 486.183 391.27 492.383 390.82 498.873C390.37 505.363 390.47 511.543 390.46 517.173C390.45 522.803 390.46 527.883 390.46 532.173C390.46 536.463 390.35 539.903 390.23 542.293C390.241 543.536 390.117 544.776 389.86 545.993C389.648 544.768 389.567 543.524 389.62 542.283C389.55 539.853 389.47 536.413 389.36 532.183C389.25 527.953 389.11 522.843 389.03 517.183C388.95 511.523 388.93 505.323 389.27 498.783C389.61 492.243 390.03 486.073 390.85 480.443C391.5 475.425 392.812 470.516 394.75 465.843C396.085 462.702 397.852 459.764 400 457.113C400.736 456.119 401.604 455.231 402.58 454.473Z" fill="#263238"/>
<path d="M469.82 538.063C469.658 536.971 469.591 535.866 469.62 534.763C469.56 532.633 469.51 529.553 469.47 525.763C469.47 523.853 469.47 521.763 469.41 519.543C469.35 517.323 469.41 514.903 469.28 512.443C469.212 509.895 468.317 507.438 466.73 505.443C465.858 504.432 464.786 503.613 463.581 503.038C462.376 502.463 461.065 502.144 459.73 502.103C457.004 502.11 454.378 503.129 452.36 504.963C450.497 506.704 449.2 508.965 448.64 511.453C448.02 513.833 447.76 516.223 447.39 518.453L446.39 524.593C445.79 528.343 445.28 531.383 444.91 533.473C444.773 534.57 444.545 535.653 444.23 536.713C444.226 535.607 444.319 534.502 444.51 533.413C444.76 531.303 445.15 528.253 445.66 524.483C445.92 522.593 446.21 520.533 446.51 518.323C446.81 516.113 447.07 513.733 447.69 511.233C448.279 508.546 449.675 506.104 451.69 504.233C453.872 502.229 456.718 501.104 459.68 501.073C461.168 501.109 462.631 501.458 463.975 502.097C465.319 502.736 466.513 503.651 467.48 504.783C469.199 506.941 470.161 509.604 470.22 512.363C470.37 514.923 470.22 517.293 470.22 519.533C470.22 521.773 470.17 523.853 470.14 525.753C470.14 529.553 470.03 532.633 469.96 534.753C470.004 535.858 469.957 536.965 469.82 538.063Z" fill="#263238"/>
<path d="M460.17 492.343C459.84 495.843 458.72 499.773 456.29 502.343C458.42 501.882 460.628 501.923 462.74 502.463C461.22 499.463 460.98 495.763 461.02 492.373" fill="#263238"/>
<path d="M469.85 515.093C469.66 515.093 469.55 513.413 468.27 511.093C467.521 509.764 466.535 508.585 465.36 507.613C463.947 506.425 462.253 505.62 460.44 505.273C458.617 504.973 456.748 505.159 455.02 505.813C453.591 506.337 452.277 507.131 451.15 508.153C449.21 509.913 448.57 511.513 448.4 511.423C448.23 511.333 448.7 509.653 450.64 507.623C451.77 506.453 453.133 505.533 454.64 504.923C456.519 504.152 458.575 503.917 460.58 504.243C462.573 504.621 464.425 505.534 465.94 506.883C467.175 507.958 468.176 509.275 468.88 510.753C470.11 513.313 469.94 515.103 469.85 515.093Z" fill="#263238"/>
<path d="M496.61 628.373C502.61 628.373 507.89 624.083 510.69 618.833C513.49 613.583 514.21 607.473 514.48 601.523C515.212 585.745 513.278 569.957 508.76 554.823L482.68 559.373L489.79 629.663L496.61 628.373Z" fill="#FFBE9D"/>
<path d="M391.05 637.123L476.03 634.033L496.64 534.453L407.13 539.423L391.05 637.123Z" fill="#263238"/>
<path d="M434.79 537.713L436.07 535.173L442.85 534.683C442.85 534.683 444.57 530.233 454.27 529.773C462.95 529.373 463.27 533.773 463.27 533.773H467.95V535.903L434.79 537.713Z" fill="#455A64"/>
<path d="M482.17 605.033L488.61 603.163C489.822 602.807 491.101 602.749 492.34 602.993C493.851 603.289 495.242 604.023 496.34 605.103C498.47 607.203 501.91 610.673 502.4 611.713C503.12 613.223 503.12 615.843 502.4 616.803C501.68 617.763 503.98 622.733 503.69 624.383C503.539 625.79 503.1 627.152 502.4 628.383C501.82 629.073 502.4 631.433 500.96 633.213C500.132 634.247 499.218 635.21 498.23 636.093C498.23 636.093 480.53 636.923 478.81 636.093C477.09 635.263 474.06 632.093 474.06 632.093C474.06 632.093 472.48 629.203 474.92 628.923L464.85 625.073C464.265 624.86 463.786 624.428 463.513 623.868C463.241 623.308 463.197 622.664 463.39 622.073C463.462 621.854 463.578 621.652 463.731 621.48C463.884 621.308 464.071 621.169 464.28 621.073C464.28 621.073 459.76 619.643 458.71 619.183C456.62 618.263 455.83 613.403 460.16 614.023C462.44 614.353 465.53 615.023 465.53 615.023C465.53 615.023 463.88 612.343 466.19 610.743C467.59 609.743 473.89 610.953 473.89 610.953L482.17 605.043V605.033Z" fill="#FFBE9D"/>
<path d="M484.41 631.593C482.634 631.647 480.863 631.383 479.18 630.813C477.441 630.424 475.8 629.682 474.36 628.633C474.43 628.513 476.54 629.543 479.36 630.313C482.18 631.083 484.43 631.473 484.41 631.593Z" fill="#EB996E"/>
<path d="M480.56 625.303C477.788 624.862 475.046 624.251 472.35 623.473C469.61 622.869 466.911 622.091 464.27 621.143C469.78 622.194 475.22 623.583 480.56 625.303Z" fill="#EB996E"/>
<path d="M482.68 619.043C476.752 618.014 470.889 616.642 465.12 614.933C471.048 615.961 476.911 617.334 482.68 619.043Z" fill="#EB996E"/>
<path d="M489.21 610.982C488.48 611.303 487.72 611.548 486.94 611.712L484.44 612.352L482.96 612.722C482.405 612.862 481.831 612.916 481.26 612.882C480.7 612.842 480.144 612.752 479.6 612.612L478.11 612.272L475.61 611.672C474.824 611.526 474.056 611.295 473.32 610.982C474.116 611.004 474.908 611.115 475.68 611.312L478.22 611.802C479.233 612.042 480.257 612.229 481.29 612.362C482.306 612.342 483.316 612.184 484.29 611.892L486.82 611.352C487.601 611.143 488.402 611.018 489.21 610.982Z" fill="#EB996E"/>
<path d="M490.34 614.373C490.4 614.373 490.64 614.553 490.83 615.033C491.087 615.67 491.112 616.378 490.9 617.033C490.698 617.681 490.282 618.241 489.72 618.623C489.29 618.903 488.97 618.943 488.94 618.883C488.91 618.823 489.94 618.203 490.4 616.883C490.572 616.052 490.551 615.194 490.34 614.373Z" fill="#EB996E"/>
<path d="M489.98 621.213C490.1 621.153 490.5 621.863 490.44 622.833C490.38 623.803 489.92 624.473 489.8 624.393C489.68 624.313 489.88 623.653 489.92 622.803C489.96 621.953 489.83 621.263 489.98 621.213Z" fill="#EB996E"/>
<path d="M490.08 628.632C490.21 628.582 490.48 629.062 490.35 629.692C490.22 630.322 489.8 630.692 489.69 630.562C489.58 630.432 489.75 630.082 489.84 629.562C489.93 629.042 489.94 628.672 490.08 628.632Z" fill="#EB996E"/>
<path d="M492.01 610.573C491.442 610.635 490.869 610.608 490.31 610.493L488.49 610.253C487.776 610.105 487.044 610.068 486.32 610.143C485.629 610.304 484.976 610.6 484.4 611.013C483.84 611.383 483.4 611.803 482.89 612.073C482.417 612.422 481.848 612.618 481.26 612.633C481.26 612.543 481.87 612.373 482.69 611.763C483.688 610.776 484.909 610.046 486.25 609.633C486.655 609.593 487.064 609.593 487.47 609.633C487.88 609.633 488.21 609.753 488.56 609.813L490.37 610.153C490.934 610.215 491.486 610.356 492.01 610.573Z" fill="#EB996E"/>
<path d="M502.23 628.703C502.349 628.282 502.499 627.871 502.68 627.473C503.501 625.576 503.618 623.448 503.01 621.473C502.81 620.593 502.4 619.713 502.18 618.663C502.048 617.568 502.123 616.459 502.4 615.393C502.518 614.289 502.316 613.175 501.82 612.183C501.316 611.166 500.699 610.21 499.98 609.333C499.29 608.463 498.62 607.613 497.98 606.853C496.849 605.46 495.416 604.342 493.79 603.583C492.686 603.09 491.471 602.904 490.27 603.043C489.43 603.163 488.99 603.383 488.97 603.343C488.95 603.303 489.07 603.263 489.28 603.153C489.601 603.014 489.937 602.91 490.28 602.843C491.522 602.625 492.801 602.76 493.97 603.233C495.674 603.974 497.181 605.104 498.37 606.533C499.07 607.303 499.75 608.143 500.45 609.013C501.198 609.937 501.839 610.944 502.36 612.013C502.9 613.095 503.112 614.311 502.97 615.513C502.706 616.527 502.622 617.579 502.72 618.623C502.91 619.623 503.31 620.513 503.5 621.413C503.721 622.251 503.832 623.115 503.83 623.983C503.782 625.231 503.479 626.456 502.94 627.583C502.754 627.986 502.515 628.362 502.23 628.703Z" fill="#EB996E"/>
<path d="M442.74 579.473L372.97 590.553L376.07 554.143L337.27 546.643L332.55 600.553L331.73 612.913C331.46 617.03 332.25 621.147 334.023 624.872C335.796 628.597 338.494 631.806 341.86 634.193C344.929 636.369 348.463 637.798 352.182 638.368C355.9 638.937 359.701 638.631 363.28 637.473L378.28 632.583L451.4 606.583" fill="#FFBE9D"/>
<path d="M484.96 571.942C485.008 571.654 484.993 571.358 484.914 571.075C484.835 570.793 484.696 570.532 484.505 570.31C484.314 570.087 484.077 569.91 483.81 569.789C483.543 569.669 483.253 569.608 482.96 569.612C479.03 569.612 468.41 569.612 464.66 570.722C460.02 572.032 442.73 579.452 442.73 579.452L450.06 606.452L476.59 606.732C476.59 606.732 486.28 602.282 486.4 600.352C486.39 599.146 486.31 597.94 486.16 596.742L489.09 595.172C493.45 592.412 490.65 587.102 490.65 587.102C490.65 587.102 493.65 585.422 493.81 582.382C493.883 581.492 493.702 580.6 493.287 579.809C492.873 579.017 492.243 578.36 491.47 577.912C491.47 577.912 492.67 573.632 490.47 572.482C488.27 571.332 484.47 572.802 484.47 572.802C484.723 572.577 484.895 572.275 484.96 571.942Z" fill="#FFBE9D"/>
<path d="M486.49 572.383C486.234 572.523 485.957 572.62 485.67 572.673C485.14 572.823 484.35 572.993 483.38 573.163C481.38 573.513 478.72 573.803 475.73 574.163C473.182 574.393 470.65 574.78 468.15 575.323C466.24 575.763 465.15 576.323 465.15 576.323C465.368 576.13 465.614 575.971 465.88 575.853C466.586 575.503 467.322 575.218 468.08 575.003C470.576 574.354 473.121 573.913 475.69 573.683C478.69 573.363 481.4 573.133 483.34 572.883C485.28 572.633 486.46 572.313 486.49 572.383Z" fill="#EB996E"/>
<path d="M491.48 577.803C490.913 578.22 490.281 578.541 489.61 578.753C488.043 579.358 486.427 579.83 484.78 580.163C482.85 580.563 481.1 580.823 479.78 580.993C479.099 581.129 478.404 581.183 477.71 581.153C477.71 580.983 480.81 580.423 484.63 579.653C486.256 579.32 487.865 578.906 489.45 578.413C490.107 578.149 490.786 577.945 491.48 577.803Z" fill="#EB996E"/>
<path d="M490.68 587.203C487.027 588.887 483.062 589.786 479.04 589.843C479.04 589.683 481.68 589.353 484.88 588.623C488.08 587.893 490.68 587.053 490.68 587.203Z" fill="#EB996E"/>
<path d="M489.1 595.223C486.311 596.64 483.229 597.383 480.1 597.393C483.105 596.688 486.105 595.965 489.1 595.223Z" fill="#EB996E"/>
<path d="M475.26 590.473C475.26 590.533 474.99 590.703 474.45 590.753C473.739 590.813 473.03 590.618 472.45 590.203C471.866 589.789 471.445 589.184 471.26 588.493C471.13 587.963 471.2 587.633 471.26 587.633C471.32 587.633 471.54 588.923 472.74 589.773C473.512 590.205 474.376 590.445 475.26 590.473Z" fill="#EB996E"/>
<path d="M474.68 598.813C474.68 598.953 473.68 599.013 472.73 598.203C471.78 597.393 471.73 596.333 471.9 596.343C472.07 596.353 472.31 597.143 473.08 597.813C473.85 598.483 474.68 598.663 474.68 598.813Z" fill="#EB996E"/>
<path d="M471.68 581.782C471.74 581.922 471.01 582.152 470.33 581.632C469.65 581.112 469.67 580.352 469.82 580.372C469.97 580.392 470.14 580.862 470.64 581.222C471.14 581.582 471.61 581.642 471.68 581.782Z" fill="#EB996E"/>
<path d="M442.74 579.473L442.95 579.353L443.58 579.063L446.04 577.973C448.2 577.043 451.33 575.693 455.3 574.063C457.3 573.263 459.46 572.373 461.86 571.483C463.093 570.988 464.364 570.594 465.66 570.303C467.057 570.055 468.465 569.881 469.88 569.783C472.78 569.553 475.88 569.453 479.06 569.413H481.49H482.73C483.187 569.389 483.642 569.486 484.05 569.693C484.486 569.905 484.835 570.26 485.041 570.698C485.246 571.137 485.295 571.632 485.18 572.103C485.118 572.244 485.013 572.363 484.88 572.443L484.58 572.633L483.98 572.913C483.571 573.088 483.15 573.235 482.72 573.353C482.655 573.368 482.587 573.358 482.529 573.324C482.472 573.291 482.429 573.237 482.41 573.173C482.401 573.14 482.399 573.107 482.403 573.074C482.407 573.04 482.418 573.008 482.435 572.98C482.452 572.951 482.474 572.925 482.501 572.905C482.527 572.885 482.558 572.871 482.59 572.863C483.674 572.548 484.776 572.301 485.89 572.123C487.045 571.912 488.224 571.871 489.39 572.003C490.024 572.073 490.623 572.331 491.11 572.743C491.561 573.205 491.857 573.795 491.96 574.433C492.139 575.652 492.061 576.895 491.73 578.083L491.6 577.773C492.173 578.103 492.673 578.545 493.07 579.073C493.566 579.743 493.894 580.522 494.026 581.345C494.158 582.168 494.091 583.011 493.83 583.803C493.279 585.323 492.219 586.605 490.83 587.433L490.93 587.083C491.651 588.509 491.943 590.114 491.77 591.703C491.658 592.478 491.376 593.219 490.944 593.873C490.511 594.526 489.94 595.076 489.27 595.483L486.35 597.053L486.48 596.803C486.55 597.503 486.62 598.203 486.67 598.893C486.67 599.233 486.67 599.583 486.72 599.893C486.72 600.063 486.72 600.243 486.72 600.423C486.693 600.626 486.622 600.82 486.51 600.993C486.089 601.552 485.579 602.038 485 602.433C484.46 602.833 483.9 603.193 483.35 603.533C481.214 604.795 479.015 605.946 476.76 606.983H476.67L457.36 606.683L452.02 606.573L450.62 606.523C450.461 606.54 450.3 606.54 450.14 606.523C450.3 606.507 450.461 606.507 450.62 606.523H452.02H457.36L476.67 606.633H476.58C478.816 605.594 480.996 604.439 483.11 603.173C483.65 602.843 484.2 602.483 484.72 602.093C485.25 601.735 485.716 601.293 486.1 600.783C486.176 600.679 486.227 600.559 486.25 600.433V599.943C486.25 599.603 486.25 599.263 486.25 598.943C486.2 598.263 486.13 597.573 486.05 596.883C486.043 596.834 486.052 596.784 486.076 596.741C486.099 596.698 486.136 596.663 486.18 596.643L489.1 595.063C489.709 594.694 490.228 594.196 490.62 593.602C491.013 593.009 491.269 592.337 491.37 591.633C491.518 590.149 491.241 588.654 490.57 587.323C490.542 587.263 490.537 587.194 490.558 587.131C490.578 587.067 490.622 587.014 490.68 586.983C491.969 586.223 492.958 585.044 493.48 583.643C493.713 582.929 493.772 582.17 493.652 581.429C493.532 580.688 493.236 579.986 492.79 579.383C492.441 578.92 492.003 578.532 491.5 578.243C491.449 578.214 491.408 578.169 491.385 578.114C491.361 578.06 491.356 578 491.37 577.943C491.676 576.833 491.751 575.672 491.59 574.533C491.529 573.999 491.28 573.505 490.888 573.139C490.496 572.772 489.986 572.558 489.45 572.533C488.337 572.408 487.212 572.448 486.11 572.653C485.016 572.817 483.933 573.054 482.87 573.363L482.74 572.873C483.143 572.768 483.537 572.634 483.92 572.473C484.11 572.393 484.31 572.303 484.48 572.213C484.65 572.123 484.83 571.943 484.89 571.963C484.926 571.605 484.871 571.243 484.73 570.913C484.557 570.584 484.289 570.316 483.96 570.143C483.624 569.972 483.247 569.896 482.87 569.923H479.21C476.01 569.923 472.94 570.043 470.05 570.253C468.653 570.345 467.261 570.509 465.88 570.743C464.603 571.028 463.35 571.409 462.13 571.883C459.74 572.753 457.55 573.623 455.56 574.403L446.25 578.173L443.76 579.173L443.11 579.433L442.74 579.473Z" fill="#EB996E"/>
<path d="M373.25 590.473C371.356 591.737 369.626 593.232 368.1 594.923C366.711 596.73 365.555 598.706 364.66 600.803C364.709 600.11 364.885 599.432 365.18 598.803C366.411 595.709 368.593 593.087 371.41 591.313C371.969 590.927 372.592 590.643 373.25 590.473Z" fill="#EB996E"/>
<path d="M464.36 374.723C463.666 365.894 459.674 357.65 453.177 351.631C446.681 345.613 438.156 342.261 429.3 342.243H427.47C407.79 343.353 397.73 360.683 399.39 380.333L402.78 459.083C402.807 459.726 403.006 460.349 403.359 460.888C403.711 461.427 404.202 461.86 404.78 462.143L448.96 482.873L447.68 441.543C447.68 441.543 466.61 438.643 466.88 419.723C466.96 410.593 465.68 391.753 464.36 374.723Z" fill="#FFBE9D"/>
<path d="M447.79 441.473C439.004 441.465 430.406 438.931 423.02 434.173C423.02 434.173 428.82 447.793 447.7 446.173L447.79 441.473Z" fill="#EB996E"/>
<path d="M457.68 386.472C457.683 387.176 457.413 387.853 456.926 388.361C456.439 388.868 455.773 389.167 455.07 389.192C454.726 389.221 454.38 389.18 454.052 389.072C453.724 388.964 453.422 388.791 453.162 388.563C452.903 388.335 452.692 388.057 452.542 387.746C452.392 387.435 452.307 387.097 452.29 386.752C452.282 386.049 452.55 385.371 453.036 384.862C453.522 384.354 454.187 384.056 454.89 384.032C455.235 384.005 455.581 384.047 455.909 384.156C456.236 384.264 456.539 384.437 456.799 384.665C457.059 384.892 457.271 385.169 457.422 385.48C457.574 385.79 457.661 386.128 457.68 386.472Z" fill="#263238"/>
<path d="M429.08 387.353C429.088 388.058 428.819 388.738 428.331 389.246C427.843 389.755 427.175 390.052 426.47 390.073C426.126 390.1 425.781 390.058 425.453 389.949C425.126 389.841 424.824 389.667 424.565 389.44C424.306 389.212 424.095 388.935 423.944 388.625C423.794 388.315 423.708 387.977 423.69 387.633C423.684 386.929 423.954 386.25 424.442 385.742C424.929 385.234 425.596 384.936 426.3 384.913C426.644 384.886 426.989 384.928 427.317 385.036C427.644 385.145 427.946 385.318 428.205 385.546C428.464 385.773 428.675 386.05 428.826 386.361C428.976 386.671 429.062 387.008 429.08 387.353Z" fill="#263238"/>
<path d="M442.21 406.033C442.21 405.873 444 405.563 446.93 405.193C447.67 405.113 448.38 404.973 448.5 404.463C448.567 403.696 448.396 402.928 448.01 402.263L445.83 396.603C442.83 388.603 440.6 381.933 440.93 381.813C441.26 381.693 443.93 388.123 447.01 396.183L449.1 401.873C449.565 402.768 449.7 403.798 449.48 404.783C449.371 405.045 449.204 405.279 448.991 405.466C448.778 405.653 448.524 405.789 448.25 405.863C447.839 405.974 447.416 406.035 446.99 406.043C444.05 406.193 442.22 406.203 442.21 406.033Z" fill="#263238"/>
<path d="M433.68 408.033C434.15 408.033 434.15 411.153 436.85 413.403C439.55 415.653 442.9 415.303 442.93 415.743C442.93 415.943 442.18 416.363 440.76 416.393C438.91 416.417 437.111 415.786 435.68 414.613C434.311 413.487 433.433 411.873 433.23 410.113C433.08 408.793 433.43 408.013 433.68 408.033Z" fill="#263238"/>
<path d="M432.954 376.67C432.664 377.46 429.764 377.08 426.354 377.49C422.944 377.9 420.184 378.82 419.724 378.11C419.524 377.77 420.004 377.02 421.124 376.26C422.602 375.31 424.285 374.724 426.034 374.55C427.779 374.342 429.548 374.554 431.194 375.17C432.444 375.68 433.074 376.3 432.954 376.67Z" fill="#263238"/>
<path d="M459.704 379.17C459.184 379.82 457.184 379.17 454.774 379.1C452.364 379.03 450.334 379.53 449.864 378.84C449.654 378.51 449.984 377.84 450.864 377.22C452.062 376.477 453.454 376.105 454.863 376.151C456.273 376.197 457.637 376.66 458.784 377.48C459.644 378.16 459.924 378.84 459.704 379.17Z" fill="#263238"/>
<path d="M402.22 394.333C401.9 394.193 389.22 390.463 389.62 403.403C390.02 416.343 402.91 413.273 402.92 412.903C402.93 412.533 402.22 394.333 402.22 394.333Z" fill="#FFBE9D"/>
<path d="M399.96 408.122C399.9 408.122 399.74 408.282 399.36 408.472C398.832 408.718 398.231 408.75 397.68 408.562C396.3 408.092 395.08 405.962 394.95 403.632C394.887 402.527 395.068 401.42 395.48 400.392C395.589 399.984 395.797 399.608 396.084 399.298C396.372 398.988 396.731 398.753 397.13 398.612C397.386 398.538 397.66 398.553 397.906 398.657C398.152 398.761 398.355 398.947 398.48 399.182C398.66 399.542 398.59 399.802 398.65 399.822C398.71 399.842 398.93 399.602 398.81 399.072C398.722 398.754 398.533 398.473 398.27 398.272C397.908 398.015 397.459 397.911 397.02 397.982C396.492 398.102 396.003 398.355 395.6 398.718C395.198 399.08 394.894 399.54 394.72 400.052C394.204 401.19 393.974 402.436 394.05 403.682C394.21 406.292 395.62 408.682 397.5 409.172C397.843 409.255 398.2 409.262 398.546 409.191C398.891 409.12 399.217 408.974 399.5 408.762C399.94 408.472 400 408.142 399.96 408.122Z" fill="#EB996E"/>
<path d="M410.68 355.893L464.6 357.083C462.765 353.417 460.043 350.268 456.68 347.923C449.67 342.492 441.123 339.416 432.26 339.133C423.47 338.973 405.56 349.693 399.19 355.753C394.09 360.603 394.13 364.803 394.13 364.803C393.32 371.803 397.23 379.743 398.79 386.613C399.59 390.153 401.14 400.863 401.14 400.863C404.14 400.863 405.21 398.493 404.76 395.553L404.21 384.023C404.21 384.023 414.31 376.843 409.52 363.703C408.78 362.653 407.14 357.853 410.68 355.893Z" fill="#263238"/>
<path d="M422.02 396.792C421.977 396.794 421.933 396.787 421.893 396.771C421.852 396.756 421.815 396.733 421.784 396.703C421.752 396.673 421.727 396.638 421.709 396.598C421.691 396.558 421.681 396.516 421.68 396.472C421.659 396.386 421.672 396.295 421.716 396.219C421.761 396.142 421.834 396.086 421.92 396.062C422.01 396.051 422.101 396.075 422.174 396.129C422.246 396.183 422.295 396.263 422.31 396.352C422.325 396.401 422.329 396.451 422.322 396.501C422.315 396.551 422.297 396.599 422.269 396.641C422.242 396.683 422.205 396.719 422.162 396.745C422.119 396.771 422.07 396.787 422.02 396.792Z" fill="#EB996E"/>
<path d="M427.58 395.543C427.4 395.543 427.23 395.433 427.18 395.213C427.154 395.12 427.165 395.021 427.209 394.935C427.254 394.85 427.329 394.785 427.42 394.753C427.516 394.747 427.611 394.78 427.684 394.843C427.757 394.907 427.802 394.996 427.81 395.093C427.838 395.183 427.83 395.28 427.787 395.365C427.744 395.449 427.67 395.513 427.58 395.543Z" fill="#EB996E"/>
<path d="M431.32 395.472C431.14 395.472 430.97 395.282 430.93 394.992C430.89 394.702 431.01 394.452 431.19 394.432C431.37 394.412 431.53 394.622 431.57 394.912C431.61 395.202 431.49 395.472 431.32 395.472Z" fill="#EB996E"/>
<path d="M424.74 400.283C424.57 400.283 424.42 400.193 424.42 400.083C424.42 399.973 424.57 399.873 424.74 399.873C424.91 399.873 425.06 399.973 425.06 400.083C425.06 400.193 424.92 400.283 424.74 400.283Z" fill="#EB996E"/>
<path d="M429.84 399.113C429.744 399.121 429.65 399.09 429.577 399.029C429.503 398.967 429.458 398.878 429.45 398.783C429.442 398.687 429.472 398.593 429.534 398.519C429.596 398.446 429.684 398.401 429.78 398.393C429.825 398.391 429.869 398.399 429.911 398.415C429.953 398.431 429.991 398.455 430.023 398.485C430.056 398.516 430.082 398.553 430.1 398.593C430.119 398.634 430.129 398.678 430.13 398.723C430.142 398.813 430.118 398.904 430.064 398.976C430.01 399.049 429.929 399.098 429.84 399.113Z" fill="#EB996E"/>
<path d="M456.35 396.002C456.306 396.009 456.261 396.007 456.217 395.997C456.174 395.986 456.133 395.966 456.098 395.939C456.062 395.912 456.033 395.878 456.011 395.839C455.989 395.8 455.975 395.757 455.97 395.712C455.948 395.625 455.961 395.533 456.006 395.454C456.05 395.376 456.123 395.318 456.21 395.292C456.3 395.281 456.391 395.305 456.463 395.359C456.536 395.413 456.585 395.493 456.6 395.582C456.612 395.626 456.615 395.672 456.609 395.718C456.602 395.763 456.587 395.806 456.564 395.845C456.541 395.885 456.51 395.919 456.473 395.946C456.436 395.973 456.394 395.992 456.35 396.002Z" fill="#EB996E"/>
<path d="M460.14 395.663C460.059 395.689 459.973 395.69 459.891 395.665C459.81 395.64 459.739 395.591 459.687 395.523C459.635 395.456 459.606 395.374 459.602 395.289C459.599 395.204 459.622 395.121 459.668 395.05C459.715 394.978 459.782 394.923 459.861 394.892C459.94 394.861 460.027 394.855 460.109 394.875C460.192 394.895 460.266 394.94 460.322 395.004C460.377 395.068 460.412 395.148 460.42 395.233C460.438 395.327 460.419 395.424 460.367 395.504C460.315 395.584 460.233 395.641 460.14 395.663Z" fill="#EB996E"/>
<path d="M453.01 396.093C452.933 396.112 452.852 396.1 452.783 396.061C452.714 396.022 452.663 395.958 452.64 395.883C452.623 395.799 452.639 395.712 452.686 395.641C452.733 395.57 452.806 395.52 452.89 395.503C452.973 395.485 453.06 395.502 453.132 395.549C453.203 395.596 453.253 395.669 453.27 395.753C453.279 395.832 453.256 395.911 453.208 395.975C453.16 396.038 453.089 396.08 453.01 396.093Z" fill="#EB996E"/>
<path d="M455.81 399.882C455.745 399.925 455.668 399.947 455.59 399.944C455.512 399.942 455.437 399.916 455.375 399.869C455.312 399.823 455.266 399.758 455.241 399.684C455.216 399.61 455.215 399.531 455.237 399.456C455.26 399.381 455.304 399.315 455.365 399.267C455.426 399.219 455.501 399.19 455.578 399.185C455.656 399.181 455.733 399.2 455.8 399.24C455.866 399.281 455.919 399.341 455.95 399.412C455.993 399.494 456.002 399.588 455.976 399.676C455.95 399.764 455.89 399.838 455.81 399.882Z" fill="#EB996E"/>
<path d="M459.04 399.242C458.964 399.228 458.896 399.184 458.851 399.121C458.807 399.057 458.788 398.979 458.8 398.902C458.835 398.837 458.892 398.785 458.96 398.756C459.029 398.727 459.105 398.722 459.177 398.741C459.249 398.761 459.312 398.804 459.356 398.865C459.4 398.925 459.423 398.998 459.42 399.072C459.391 399.144 459.335 399.202 459.264 399.234C459.193 399.266 459.113 399.269 459.04 399.242Z" fill="#EB996E"/>
<path d="M398.86 356.473C398.259 354.083 398.221 351.587 398.747 349.18C399.274 346.773 400.351 344.52 401.895 342.6C403.438 340.679 405.406 339.143 407.643 338.111C409.881 337.079 412.327 336.58 414.79 336.653C417.31 336.753 419.79 337.463 422.31 337.193C426.98 336.683 430.58 332.943 434.91 331.123C438.328 329.79 442.094 329.639 445.607 330.694C449.121 331.749 452.181 333.948 454.3 336.943C455.94 339.393 457.01 342.423 459.53 343.943C461.7 345.273 464.44 345.163 466.88 345.943C471.82 347.423 475.2 352.673 474.94 357.823C474.731 360.402 473.818 362.874 472.299 364.969C470.781 367.064 468.716 368.701 466.33 369.703C463.93 370.661 461.345 371.068 458.767 370.895C456.188 370.722 453.681 369.973 451.43 368.703C447.36 366.433 443.72 362.573 439.06 362.703C434.24 362.843 430.06 367.383 425.3 366.443C422.82 365.953 420.91 364.043 419.09 362.283C417.27 360.523 415.19 358.733 412.66 358.583C410.13 358.433 408.82 361.903 409.73 364.263L398.86 356.473Z" fill="#263238"/>
<path d="M463.58 350.233C463.554 350.298 463.524 350.361 463.49 350.423C463.397 350.602 463.293 350.775 463.18 350.943C462.742 351.595 462.221 352.186 461.63 352.703C460.69 353.524 459.6 354.156 458.42 354.563C456.846 355.101 455.156 355.201 453.53 354.853C451.545 354.434 449.741 353.407 448.37 351.913C446.9 350.303 446.02 348.133 444.65 346.233C443.979 345.25 443.085 344.441 442.04 343.873C440.928 343.323 439.7 343.052 438.46 343.083C437.175 343.121 435.917 343.464 434.79 344.083C433.642 344.732 432.705 345.697 432.09 346.863C431.44 348.053 430.97 349.353 430.19 350.503C429.82 351.101 429.313 351.603 428.712 351.968C428.11 352.333 427.431 352.55 426.73 352.603C425.397 352.623 424.089 352.247 422.97 351.523C421.917 350.861 420.955 350.064 420.11 349.153C418.44 347.473 416.8 345.793 414.76 345.343C413.818 345.16 412.848 345.179 411.914 345.398C410.98 345.617 410.103 346.031 409.34 346.613C408.038 347.559 407.005 348.827 406.34 350.293C405.831 351.401 405.455 352.566 405.22 353.763C405.02 354.763 404.93 355.523 404.87 356.053C404.848 356.325 404.808 356.596 404.75 356.863C404.74 356.793 404.74 356.722 404.75 356.653C404.75 356.513 404.75 356.313 404.75 356.043C404.792 355.265 404.882 354.49 405.02 353.723C405.204 352.502 405.54 351.31 406.02 350.173C406.668 348.648 407.702 347.317 409.02 346.313C409.82 345.685 410.746 345.237 411.734 344.997C412.723 344.757 413.751 344.732 414.75 344.923C416.96 345.393 418.67 347.153 420.33 348.813C421.157 349.687 422.091 350.453 423.11 351.093C424.146 351.763 425.357 352.111 426.59 352.093C427.211 352.04 427.811 351.842 428.343 351.515C428.874 351.189 429.322 350.743 429.65 350.213C430.38 349.133 430.85 347.843 431.52 346.613C432.181 345.354 433.191 344.312 434.43 343.613C435.632 342.959 436.972 342.599 438.34 342.563C439.664 342.536 440.975 342.831 442.16 343.423C443.27 344.032 444.219 344.895 444.93 345.943C446.34 347.943 447.18 350.063 448.58 351.623C449.884 353.063 451.603 354.062 453.5 354.483C455.063 354.843 456.695 354.771 458.22 354.273C459.376 353.902 460.452 353.315 461.39 352.543C462.218 351.873 462.955 351.096 463.58 350.233Z" fill="#455A64"/>
<path d="M473.35 350.473C473.48 350.791 473.555 351.129 473.57 351.473C473.648 352.444 473.557 353.422 473.3 354.363C472.916 355.759 472.234 357.056 471.3 358.163C470.134 359.509 468.678 360.573 467.04 361.273C464.061 362.486 460.805 362.852 457.63 362.333C456.68 362.199 455.739 362.012 454.81 361.773C454.461 361.711 454.124 361.597 453.81 361.433C453.81 361.353 455.28 361.713 457.68 361.963C460.78 362.365 463.931 361.962 466.83 360.793C468.399 360.125 469.802 359.122 470.94 357.853C471.847 356.803 472.528 355.577 472.94 354.253C473.286 353.024 473.425 351.747 473.35 350.473Z" fill="#455A64"/>
<path d="M381.32 558.783C381.526 560.826 382.31 562.769 383.58 564.383C384.74 565.893 387.09 567.383 388.98 567.253C390.404 567.325 391.822 567.027 393.097 566.387C394.371 565.748 395.457 564.788 396.25 563.603C398.56 559.943 399.12 552.313 397.25 547.803C395.98 544.703 393.12 541.803 389.77 541.733C385.37 541.633 382.61 544.813 381.67 548.033" fill="#E0E0E0"/>
<path d="M381.68 548.032C381.827 547.271 382.104 546.54 382.5 545.872C382.932 545.066 383.489 544.334 384.15 543.703C385.026 542.856 386.093 542.231 387.26 541.882C387.938 541.676 388.641 541.561 389.35 541.543C390.125 541.5 390.902 541.602 391.64 541.842C393.254 542.41 394.673 543.427 395.73 544.772C396.913 546.227 397.735 547.94 398.13 549.772C398.553 551.719 398.705 553.715 398.58 555.703C398.37 558.833 397.76 561.952 396.02 564.332C395.164 565.455 394.015 566.32 392.7 566.832C391.51 567.31 390.231 567.525 388.95 567.462C388.009 567.469 387.081 567.243 386.25 566.802C385.522 566.423 384.849 565.945 384.25 565.382C383.302 564.447 382.551 563.332 382.04 562.102C381.707 561.325 381.472 560.508 381.34 559.673C381.306 559.454 381.286 559.234 381.28 559.013C381.263 558.937 381.263 558.858 381.28 558.782C381.473 559.894 381.809 560.977 382.28 562.002C382.818 563.175 383.571 564.237 384.5 565.132C385.104 565.661 385.777 566.105 386.5 566.453C387.272 566.851 388.131 567.054 389 567.042C390.267 567.105 391.531 566.866 392.687 566.345C393.843 565.823 394.859 565.034 395.65 564.042C397.26 561.812 397.88 558.742 398.08 555.682C398.29 551.682 397.63 547.742 395.38 545.082C394.383 543.804 393.05 542.827 391.53 542.263C390.837 542.033 390.109 541.928 389.38 541.953C388.703 541.959 388.031 542.056 387.38 542.242C386.26 542.56 385.232 543.139 384.38 543.932C383.714 544.523 383.141 545.211 382.68 545.972C382.308 546.639 381.974 547.327 381.68 548.032Z" fill="#263238"/>
<path d="M378.98 558.982C379.188 561.026 379.971 562.968 381.24 564.582C382.4 566.092 384.75 567.582 386.64 567.452C388.064 567.525 389.483 567.227 390.757 566.587C392.031 565.947 393.118 564.988 393.91 563.802C396.21 560.132 396.78 552.512 394.91 548.002C393.64 544.892 390.79 542.002 387.44 541.932C385.579 541.917 383.767 542.529 382.297 543.67C380.827 544.812 379.785 546.416 379.34 548.222" fill="#E0E0E0"/>
<path d="M379.36 548.223C379.508 547.464 379.785 546.737 380.18 546.073C380.609 545.265 381.166 544.532 381.83 543.903C383.227 542.55 385.086 541.778 387.03 541.743C387.805 541.7 388.582 541.802 389.32 542.043C390.936 542.608 392.355 543.625 393.41 544.973C394.593 546.427 395.415 548.14 395.81 549.973C396.235 551.919 396.383 553.915 396.25 555.903C396.05 559.033 395.44 562.143 393.7 564.533C392.844 565.655 391.696 566.52 390.38 567.033C389.19 567.51 387.911 567.725 386.63 567.663C385.689 567.667 384.761 567.436 383.93 566.993C383.198 566.622 382.525 566.147 381.93 565.583C380.98 564.645 380.228 563.527 379.72 562.293C379.381 561.52 379.146 560.707 379.02 559.873C378.986 559.654 378.966 559.434 378.96 559.213C378.943 559.137 378.943 559.058 378.96 558.983C379.154 560.091 379.49 561.17 379.96 562.193C380.492 563.372 381.245 564.438 382.18 565.333C382.784 565.861 383.457 566.306 384.18 566.653C384.954 567.047 385.812 567.249 386.68 567.243C387.947 567.306 389.211 567.066 390.367 566.545C391.523 566.023 392.539 565.234 393.33 564.243C394.94 562.003 395.56 558.943 395.75 555.883C395.97 551.883 395.31 547.943 393.05 545.283C392.062 543.999 390.731 543.021 389.21 542.463C388.517 542.233 387.789 542.128 387.06 542.153C386.384 542.161 385.711 542.258 385.06 542.443C383.941 542.761 382.913 543.34 382.06 544.133C381.401 544.728 380.834 545.419 380.38 546.183C380.005 546.845 379.665 547.526 379.36 548.223Z" fill="#263238"/>
<path d="M383.22 547.102C382.111 546.963 380.986 547.19 380.017 547.747C379.048 548.305 378.287 549.163 377.85 550.192C377.025 552.291 377.025 554.624 377.85 556.722C378.198 557.807 378.767 558.808 379.52 559.662C380.294 560.517 381.37 561.037 382.52 561.112C383.359 561.072 384.176 560.829 384.9 560.404C385.624 559.979 386.235 559.385 386.68 558.672C387.454 557.571 387.98 556.315 388.224 554.992C388.467 553.668 388.422 552.307 388.09 551.002C387.63 549.262 386.36 547.492 384.57 547.442" fill="#E0E0E0"/>
<path d="M384.53 547.472C384.53 547.472 384.66 547.472 384.92 547.472C385.305 547.517 385.677 547.643 386.01 547.842C386.603 548.233 387.111 548.739 387.504 549.33C387.897 549.921 388.168 550.585 388.3 551.282C388.778 553.335 388.56 555.488 387.68 557.402C387.173 558.544 386.406 559.551 385.44 560.342C384.916 560.793 384.293 561.112 383.622 561.274C382.951 561.435 382.251 561.435 381.58 561.272C380.269 560.852 379.165 559.952 378.49 558.752C377.876 557.677 377.444 556.508 377.21 555.292C376.96 554.277 376.92 553.221 377.091 552.189C377.263 551.158 377.644 550.172 378.21 549.292C378.616 548.71 379.134 548.214 379.733 547.833C380.332 547.452 381 547.193 381.7 547.072C382.078 547.016 382.462 547.016 382.84 547.072C383.09 547.122 383.22 547.162 383.22 547.182C382.721 547.165 382.223 547.195 381.73 547.272C380.412 547.58 379.261 548.377 378.51 549.502C377.994 550.353 377.655 551.299 377.512 552.283C377.37 553.267 377.427 554.271 377.68 555.232C377.917 556.389 378.339 557.5 378.93 558.522C379.54 559.607 380.536 560.421 381.72 560.802C382.311 560.947 382.928 560.948 383.52 560.806C384.111 560.663 384.66 560.381 385.12 559.982C386.03 559.247 386.756 558.308 387.24 557.242C388.103 555.424 388.349 553.373 387.94 551.402C387.724 550.072 387.009 548.874 385.94 548.052C385.509 547.775 385.031 547.579 384.53 547.472Z" fill="#263238"/>
<path d="M388.26 563.543C388.19 563.543 388.08 563.223 387.73 562.823C387.276 562.308 386.687 561.93 386.03 561.733C385.345 561.543 384.64 561.432 383.93 561.403C383.37 561.403 383.02 561.313 383.01 561.243C383 561.173 383.35 561.093 383.92 561.033C384.679 560.952 385.447 561.019 386.18 561.233C386.944 561.453 387.601 561.943 388.03 562.613C388.35 563.133 388.32 563.533 388.26 563.543Z" fill="#263238"/>
<path d="M389.05 545.743C389.05 545.743 388.9 546.093 388.43 546.463C387.812 546.936 387.087 547.251 386.32 547.383C385.558 547.524 384.773 547.483 384.03 547.263C383.46 547.073 383.16 546.853 383.19 546.793C384.183 546.947 385.191 546.973 386.19 546.873C387.186 546.615 388.147 546.236 389.05 545.743Z" fill="#263238"/>
<path d="M244.058 361.398C243.698 361.258 229.748 357.598 230.588 371.708C231.428 385.818 245.418 382.058 245.428 381.648C245.438 381.238 244.058 361.398 244.058 361.398Z" fill="#FFBE9D"/>
<path d="M240.798 376.569C240.728 376.519 240.558 376.749 240.158 376.969C239.587 377.254 238.926 377.305 238.318 377.109C236.798 376.659 235.398 374.369 235.178 371.829C235.069 370.641 235.219 369.443 235.618 368.319C235.724 367.869 235.937 367.452 236.24 367.103C236.544 366.755 236.927 366.485 237.358 366.319C237.636 366.227 237.938 366.236 238.21 366.344C238.482 366.451 238.708 366.651 238.848 366.909C239.058 367.289 238.988 367.579 239.058 367.599C239.128 367.619 239.348 367.339 239.198 366.769C239.102 366.422 238.886 366.121 238.588 365.919C238.388 365.783 238.163 365.688 237.926 365.64C237.689 365.592 237.445 365.591 237.208 365.639C236.637 365.788 236.113 366.082 235.688 366.491C235.262 366.901 234.949 367.413 234.778 367.979C234.241 369.24 234.028 370.615 234.158 371.979C234.418 374.819 236.038 377.389 238.108 377.859C238.494 377.946 238.895 377.946 239.281 377.858C239.667 377.77 240.028 377.596 240.338 377.349C240.788 376.909 240.848 376.589 240.798 376.569Z" fill="#EB996E"/>
<path d="M279.278 311.008C286.448 311.008 293.748 311.008 302.718 315.698C308.378 318.698 311.898 323.328 314.848 328.988C317.201 333.59 318.35 338.713 318.188 343.878C317.928 348.758 317.908 352.168 315.958 356.648" fill="#263238"/>
<path d="M276.409 312.119C281.448 311.759 286.509 312.409 291.294 314.029C296.08 315.649 300.494 318.207 304.279 321.554C308.065 324.9 311.144 328.968 313.339 333.519C315.533 338.07 316.797 343.013 317.059 348.059C317.979 365.729 318.789 384.839 318.599 394.459C318.179 415.119 297.489 418.169 297.489 418.169C297.489 418.169 297.949 424.289 298.489 431.889C298.729 435.519 298.239 439.161 297.048 442.599C295.857 446.037 293.989 449.202 291.554 451.905C289.119 454.609 286.166 456.797 282.871 458.34C279.576 459.883 276.005 460.749 272.369 460.889C268.796 461.025 265.232 460.456 261.879 459.214C258.527 457.971 255.452 456.08 252.831 453.649C250.21 451.217 248.094 448.293 246.604 445.043C245.115 441.793 244.28 438.281 244.149 434.709L241.079 351.449C240.704 341.581 244.186 331.955 250.787 324.61C257.387 317.265 266.587 312.778 276.439 312.099L276.409 312.119Z" fill="#FFBE9D"/>
<path d="M297.488 418.169C297.488 418.169 284.788 418.829 270.988 409.999C270.988 409.999 277.238 424.999 297.858 423.339L297.488 418.169Z" fill="#EB996E"/>
<path d="M309.138 359.549C309.154 360.325 308.863 361.076 308.327 361.638C307.791 362.201 307.055 362.528 306.278 362.549C305.904 362.574 305.529 362.525 305.174 362.404C304.82 362.282 304.493 362.091 304.214 361.841C303.934 361.591 303.707 361.288 303.547 360.949C303.386 360.611 303.295 360.243 303.278 359.869C303.277 359.097 303.574 358.354 304.107 357.795C304.64 357.237 305.367 356.905 306.138 356.869C306.512 356.844 306.887 356.895 307.241 357.017C307.595 357.139 307.921 357.33 308.2 357.58C308.479 357.829 308.706 358.132 308.867 358.47C309.028 358.808 309.121 359.175 309.138 359.549Z" fill="#263238"/>
<path d="M312.008 355.368C311.638 355.748 309.418 354.078 306.238 354.058C303.058 354.038 300.728 355.618 300.388 355.228C300.218 355.048 300.598 354.358 301.618 353.628C302.997 352.683 304.637 352.194 306.308 352.228C307.959 352.23 309.565 352.763 310.888 353.748C311.858 354.498 312.188 355.198 312.008 355.368Z" fill="#263238"/>
<path d="M278.008 359.549C278.024 360.327 277.731 361.079 277.193 361.642C276.655 362.204 275.916 362.53 275.138 362.549C274.765 362.573 274.39 362.523 274.036 362.401C273.682 362.278 273.356 362.087 273.076 361.838C272.797 361.588 272.57 361.286 272.409 360.947C272.248 360.609 272.156 360.243 272.138 359.869C272.137 359.095 272.436 358.351 272.97 357.792C273.505 357.233 274.235 356.902 275.008 356.869C275.382 356.846 275.756 356.897 276.109 357.02C276.463 357.142 276.788 357.334 277.067 357.583C277.346 357.832 277.573 358.134 277.735 358.471C277.896 358.809 277.989 359.175 278.008 359.549Z" fill="#263238"/>
<path d="M280.799 355.719C280.429 356.099 278.199 354.429 275.029 354.409C271.859 354.389 269.519 355.959 269.169 355.569C269.009 355.399 269.379 354.699 270.409 353.969C271.79 353.029 273.428 352.54 275.099 352.569C276.747 352.58 278.35 353.112 279.679 354.089C280.619 354.849 280.979 355.539 280.799 355.719Z" fill="#263238"/>
<path d="M292.128 379.319C292.128 379.139 294.128 378.819 297.288 378.429C298.098 378.349 298.868 378.199 299.008 377.649C299.089 376.811 298.907 375.969 298.488 375.239C297.748 373.239 296.958 371.239 296.138 369.049C292.878 360.229 290.528 352.989 290.888 352.859C291.248 352.729 294.178 359.769 297.428 368.589C298.218 370.759 298.968 372.829 299.678 374.819C300.181 375.799 300.323 376.925 300.078 377.999C299.955 378.283 299.77 378.537 299.536 378.741C299.303 378.945 299.027 379.095 298.728 379.179C298.28 379.29 297.82 379.35 297.358 379.359C294.138 379.529 292.138 379.529 292.128 379.319Z" fill="#263238"/>
<path d="M282.768 381.469C283.288 381.469 283.258 384.889 286.188 387.359C289.118 389.829 292.798 389.479 292.818 389.959C292.818 390.179 291.988 390.629 290.438 390.659C288.417 390.662 286.459 389.954 284.908 388.659C283.422 387.414 282.473 385.645 282.258 383.719C282.138 382.319 282.528 381.449 282.768 381.469Z" fill="#263238"/>
<path d="M281.708 343.318C281.388 344.178 278.228 343.748 274.498 344.168C270.768 344.588 267.748 345.578 267.258 344.798C267.048 344.428 267.578 343.618 268.798 342.798C270.427 341.79 272.263 341.165 274.169 340.971C276.075 340.777 278 341.019 279.798 341.678C281.168 342.188 281.848 342.868 281.708 343.318Z" fill="#263238"/>
<path d="M311.559 344.068C310.999 344.788 308.819 344.018 306.189 343.968C303.559 343.918 301.329 344.408 300.819 343.648C300.599 343.278 300.949 342.558 301.929 341.888C303.243 341.079 304.768 340.678 306.31 340.739C307.853 340.799 309.342 341.318 310.589 342.228C311.509 342.978 311.809 343.718 311.559 344.068Z" fill="#263238"/>
<path d="M241.288 357.919C241.288 357.919 242.188 362.699 242.428 364.849C242.518 365.639 242.428 374.389 244.538 374.849C246.368 375.229 249.998 373.559 251.618 369.939C253.238 366.319 256.318 357.629 255.978 353.679C255.528 348.299 255.278 342.819 256.358 337.519C257.438 332.219 259.968 327.059 264.218 323.719C268.468 320.379 274.618 319.229 279.458 321.649C282.458 323.149 284.668 325.799 287.458 327.649C289.933 329.401 292.964 330.188 295.978 329.859C297.474 329.671 298.886 329.064 300.052 328.109C301.218 327.153 302.09 325.888 302.568 324.459C303.448 321.309 301.828 317.859 299.298 315.769C296.768 313.679 293.518 312.719 290.298 312.079C281.36 310.159 272.061 310.811 263.478 313.959C255.008 317.249 247.478 323.569 243.878 331.899C239.698 341.529 240.178 347.439 241.288 357.899" fill="#263238"/>
<path d="M288.508 359.679C288.409 358.534 288.229 357.398 287.968 356.279C287.167 353.24 285.367 350.56 282.858 348.669C281.142 347.371 279.145 346.494 277.028 346.109C274.597 345.664 272.091 345.875 269.768 346.719C268.518 347.165 267.344 347.802 266.288 348.609C265.161 349.419 264.175 350.409 263.368 351.539C261.634 353.9 260.699 356.754 260.699 359.684C260.699 362.614 261.634 365.467 263.368 367.829C264.18 368.954 265.166 369.943 266.288 370.759C267.344 371.562 268.518 372.196 269.768 372.639C272.091 373.485 274.596 373.699 277.028 373.259C279.147 372.872 281.144 371.992 282.858 370.689C285.369 368.801 287.173 366.125 287.978 363.089C288.233 361.966 288.411 360.826 288.508 359.679C288.523 359.755 288.523 359.833 288.508 359.909V360.579C288.513 360.944 288.483 361.309 288.418 361.669C288.371 362.161 288.284 362.65 288.158 363.129C287.414 366.255 285.617 369.031 283.068 370.989C281.181 372.443 278.957 373.398 276.602 373.765C274.248 374.132 271.839 373.899 269.598 373.089C268.298 372.638 267.077 371.987 265.978 371.159C264.825 370.324 263.813 369.312 262.978 368.159C261.172 365.711 260.198 362.75 260.198 359.709C260.198 356.667 261.172 353.706 262.978 351.259C264.656 348.975 266.969 347.236 269.628 346.259C272.029 345.402 274.613 345.198 277.118 345.669C279.303 346.084 281.359 347.009 283.118 348.369C285.665 350.324 287.462 353.096 288.208 356.219C288.334 356.701 288.421 357.192 288.468 357.689C288.533 358.045 288.563 358.407 288.558 358.769V359.439C288.528 359.609 288.518 359.679 288.508 359.679Z" fill="#263238"/>
<path d="M324.879 359.679C324.773 358.535 324.593 357.399 324.339 356.279C323.535 353.239 321.731 350.558 319.219 348.669C317.503 347.369 315.506 346.492 313.389 346.109C310.961 345.664 308.458 345.875 306.139 346.719C303.578 347.662 301.352 349.338 299.739 351.539C297.998 353.898 297.059 356.752 297.059 359.684C297.059 362.615 297.998 365.47 299.739 367.829C300.547 368.954 301.529 369.943 302.649 370.759C303.706 371.564 304.884 372.198 306.139 372.639C308.457 373.485 310.96 373.699 313.389 373.259C315.507 372.872 317.504 371.992 319.219 370.689C321.73 368.801 323.533 366.125 324.339 363.089C324.593 361.965 324.773 360.826 324.879 359.679C324.883 359.755 324.883 359.832 324.879 359.909C324.879 360.089 324.879 360.309 324.879 360.579C324.882 360.944 324.856 361.308 324.799 361.669C324.747 362.162 324.657 362.65 324.529 363.129C323.792 366.258 321.993 369.036 319.439 370.989C317.679 372.347 315.623 373.268 313.439 373.679C310.931 374.159 308.34 373.956 305.939 373.089C303.275 372.124 300.961 370.382 299.299 368.089C297.487 365.644 296.508 362.682 296.508 359.639C296.508 356.596 297.487 353.633 299.299 351.189C300.132 350.035 301.145 349.022 302.299 348.189C303.399 347.361 304.62 346.707 305.919 346.249C308.322 345.391 310.91 345.188 313.419 345.659C315.604 346.072 317.66 346.997 319.419 348.359C321.971 350.309 323.769 353.083 324.509 356.209C324.637 356.691 324.728 357.182 324.779 357.679C324.835 358.036 324.862 358.397 324.859 358.759C324.859 359.029 324.859 359.249 324.859 359.429C324.871 359.511 324.878 359.595 324.879 359.679Z" fill="#263238"/>
<path d="M297.129 358.178C297.129 358.258 296.619 357.998 295.829 357.738C294.796 357.391 293.706 357.249 292.619 357.318C291.544 357.398 290.493 357.676 289.519 358.139C288.769 358.509 288.349 358.829 288.299 358.759C288.249 358.689 288.599 358.288 289.299 357.818C290.284 357.225 291.397 356.875 292.545 356.798C293.693 356.722 294.843 356.921 295.899 357.378C296.769 357.758 297.169 358.138 297.129 358.178Z" fill="#263238"/>
<path d="M302.758 323.319C302.968 322.249 302.608 321.649 303.218 321.209C303.828 320.769 305.218 322.029 305.678 322.549C305.838 322.719 306.318 322.059 306.508 321.939C306.717 321.51 306.839 321.044 306.868 320.569C306.778 319.819 305.608 319.569 305.058 319.109C304.491 318.61 303.827 318.232 303.108 317.999C302.816 317.854 302.49 317.788 302.164 317.807C301.838 317.826 301.522 317.93 301.248 318.109C301.086 318.301 300.965 318.524 300.893 318.765C300.82 319.006 300.799 319.259 300.828 319.509C300.826 320.009 300.921 320.505 301.108 320.969C301.297 321.435 301.654 321.814 302.108 322.029" fill="#263238"/>
<path d="M240.518 346.938C240.518 346.938 250.648 350.648 255.918 352.888L255.618 347.708L240.888 341.878C240.888 341.878 240.508 345.728 240.518 346.938Z" fill="#EBEBEB"/>
<path d="M241.468 338.889C243.916 339.647 246.311 340.565 248.638 341.639C251.042 342.555 253.381 343.634 255.638 344.869C253.19 344.111 250.795 343.192 248.468 342.119C246.064 341.203 243.725 340.123 241.468 338.889Z" fill="#EBEBEB"/>
<path d="M244.519 448.009L243.739 423.499C243.739 423.499 248.609 445.929 274.119 445.639C298.489 445.359 298.049 425.879 298.049 425.879L298.919 435.759V475.669L283.019 540.779L262.709 543.319L240.269 454.319L244.519 448.009Z" fill="#0694A2"/>
<path d="M295.778 440.168C295.703 440.353 295.605 440.527 295.488 440.688C295.183 441.181 294.849 441.655 294.488 442.108C293.206 443.796 291.675 445.279 289.948 446.508C287.386 448.342 284.513 449.697 281.468 450.508C277.739 451.509 273.85 451.777 270.018 451.298C266.202 450.773 262.491 449.656 259.018 447.988C256.2 446.64 253.521 445.019 251.018 443.148C249.325 441.906 247.703 440.571 246.158 439.148C245.608 438.648 245.208 438.228 244.928 437.948C244.779 437.817 244.645 437.669 244.528 437.508C244.698 437.614 244.856 437.738 244.998 437.878L246.298 438.998C247.418 439.998 249.078 441.328 251.238 442.878C253.753 444.69 256.431 446.264 259.238 447.578C262.67 449.197 266.329 450.283 270.088 450.798C273.851 451.271 277.669 451.023 281.338 450.068C284.338 449.289 287.18 447.997 289.738 446.248C291.457 445.061 293.001 443.641 294.328 442.028C295.288 440.828 295.738 440.138 295.778 440.168Z" fill="#263238"/>
<path d="M278.078 649.429L277.708 533.729L244.848 449.319L243.748 423.909L223.748 439.049C223.748 439.049 194.618 539.319 194.128 535.859C193.638 532.399 194.128 649.429 194.128 649.429H278.078Z" fill="#EBEBEB"/>
<path d="M277.288 649.108C277.148 649.108 277.028 623.038 277.028 590.878C277.028 558.718 277.148 532.648 277.288 532.648C277.428 532.648 277.548 558.718 277.548 590.878C277.548 623.038 277.428 649.108 277.288 649.108Z" fill="#263238"/>
<path d="M224.019 455.528L228.079 458.608L225.229 477.328L273.189 527.568L229.629 470.358L233.339 455.528H224.019Z" fill="#E0E0E0"/>
<path d="M279.878 590.158L206.268 568.578L203.828 512.668L224.018 439.008C224.018 439.008 175.898 463.018 172.618 478.318C169.338 493.618 161.448 530.738 160.618 557.588C159.868 581.588 159.758 597.588 165.238 605.298C180.938 627.238 284.378 631.158 325.698 605.298" fill="#EBEBEB"/>
<path d="M274.118 528.778C274.118 528.778 274.028 528.698 273.878 528.508C273.728 528.318 273.488 528.028 273.218 527.688L270.718 524.488C268.538 521.668 265.428 517.628 261.598 512.648L231.668 473.478L229.418 470.478L229.338 470.378V470.258C230.618 465.138 231.868 460.168 233.058 455.428L233.298 455.748H223.978H223.738V455.508C223.738 449.508 223.738 443.908 223.738 438.988V438.888L223.818 438.828L238.288 427.828L242.288 424.828L243.288 424.058C243.402 423.964 243.526 423.884 243.658 423.818L243.328 424.108L242.328 424.918L238.418 427.978L224.058 439.118L224.138 438.958C224.138 443.878 224.138 449.428 224.138 455.478L223.898 455.248H233.218H233.618L233.538 455.568L229.838 470.398L229.788 470.178L232.048 473.128L261.848 512.398L270.848 524.328C271.848 525.728 272.698 526.818 273.268 527.588C273.528 527.948 273.728 528.238 273.888 528.448L274.118 528.778Z" fill="#263238"/>
<path d="M306.928 434.649C301.058 424.389 298.008 425.449 298.008 425.449L298.318 429.109V436.799L295.528 469.799L277.698 541.489L278.068 649.429H345.478L353.868 517.669L353.108 460.899L306.928 434.649Z" fill="#EBEBEB"/>
<path d="M353.118 460.898C353.118 460.898 370.568 473.778 372.118 494.508C373.348 511.338 376.118 557.428 376.668 567.458C377.468 583.078 365.298 619.668 333.618 609.308C314.618 603.088 244.438 579.238 244.438 579.238L249.108 549.428L332.408 554.428L334.068 484.948L353.118 460.898Z" fill="#EBEBEB"/>
<path d="M248.118 552.859C248.118 552.859 224.538 550.309 219.118 551.629C213.868 552.899 206.398 559.319 206.398 559.319L206.508 568.629L244.438 579.239L248.118 552.859Z" fill="#FFBE9D"/>
<path d="M277.708 530.709C277.734 530.598 277.771 530.491 277.819 530.389C277.899 530.159 278.018 529.849 278.168 529.469C278.498 528.629 278.978 527.469 279.578 525.949L284.858 513.029L292.738 493.889C293.488 492.099 294.229 490.229 295.159 488.398C296.089 486.568 297.099 484.739 298.159 482.909C300.457 479.177 302.954 475.572 305.638 472.109C306.998 470.359 308.369 468.649 309.789 467.009V467.279L306.849 459.809L306.749 459.559L306.999 459.469L319.268 455.319L319.138 455.659C313.438 446.139 308.628 438.099 305.208 432.399C303.528 429.579 302.089 427.319 300.559 426.399C299.982 426.051 299.355 425.798 298.698 425.649C298.466 425.605 298.235 425.548 298.009 425.479C298.243 425.494 298.477 425.524 298.708 425.569C299.388 425.691 300.041 425.931 300.638 426.279C301.566 426.882 302.368 427.659 302.999 428.569C303.882 429.75 304.7 430.978 305.448 432.249L319.548 455.428L319.698 455.678L319.418 455.769L307.148 459.979L307.298 459.648L310.249 467.118L310.309 467.259L310.198 467.379C308.798 468.999 307.428 470.709 306.078 472.459C303.404 475.897 300.914 479.476 298.618 483.178C297.549 484.998 296.498 486.788 295.618 488.618C294.739 490.449 293.958 492.269 293.208 494.069C290.208 501.249 287.488 507.719 285.208 513.169C282.928 518.619 281.069 522.959 279.779 526.019C279.139 527.509 278.629 528.679 278.279 529.509C278.109 529.889 277.978 530.179 277.868 530.409C277.829 530.515 277.775 530.616 277.708 530.709Z" fill="#263238"/>
<path d="M362.689 603.508C362.604 603.622 362.506 603.726 362.398 603.818L361.499 604.688C360.314 605.772 359.032 606.743 357.668 607.588C355.495 608.911 353.135 609.902 350.668 610.528C347.4 611.338 344.013 611.554 340.668 611.168C338.718 610.941 336.793 610.533 334.918 609.948C332.918 609.328 330.998 608.558 328.918 607.838C324.808 606.338 320.389 604.838 315.749 603.158C306.449 599.898 296.199 596.418 285.398 592.868C263.799 585.778 244.099 579.798 229.819 575.528L212.898 570.528L208.298 569.158L207.108 568.798C206.971 568.761 206.837 568.711 206.708 568.648L207.129 568.738L208.328 569.058L212.958 570.328C216.958 571.448 222.768 573.098 229.958 575.178C244.258 579.348 263.959 585.278 285.589 592.378C296.398 595.918 306.649 599.378 315.939 602.698C320.579 604.348 324.989 605.918 329.099 607.428C331.159 608.168 333.099 608.948 335.099 609.568C336.946 610.155 338.844 610.567 340.768 610.798C344.082 611.205 347.441 611.018 350.689 610.248C353.146 609.647 355.503 608.693 357.689 607.418C359.052 606.592 360.343 605.652 361.548 604.608L362.478 603.778C362.542 603.683 362.612 603.593 362.689 603.508Z" fill="#263238"/>
<path d="M206.468 568.799C206.468 568.909 205.138 568.619 203.028 568.709C201.795 568.759 200.572 568.961 199.388 569.309C197.943 569.742 196.563 570.371 195.288 571.179C192.985 572.698 191.037 574.697 189.578 577.039C188.468 578.839 187.978 580.039 187.888 580.039C187.942 579.731 188.036 579.431 188.168 579.149C188.471 578.353 188.839 577.584 189.268 576.849C190.67 574.385 192.637 572.291 195.008 570.739C196.326 569.907 197.758 569.27 199.258 568.849C200.484 568.517 201.748 568.345 203.018 568.339C203.871 568.327 204.722 568.404 205.558 568.569C205.871 568.603 206.177 568.68 206.468 568.799Z" fill="#263238"/>
<path d="M183.278 561.499C183.278 561.499 183.278 561.399 183.368 561.229C183.488 560.99 183.643 560.771 183.828 560.579C184.542 559.88 185.46 559.424 186.448 559.279C187.879 559.043 189.338 559.043 190.768 559.279C192.518 559.509 194.238 559.929 195.898 560.529C198.934 561.595 201.707 563.3 204.028 565.529C204.72 566.21 205.353 566.949 205.918 567.739C206.138 568.019 206.323 568.324 206.468 568.649C206.378 568.719 205.558 567.439 203.778 565.799C201.431 563.699 198.692 562.085 195.718 561.049C194.096 560.467 192.422 560.042 190.718 559.779C189.332 559.529 187.916 559.488 186.518 559.659C185.588 559.765 184.709 560.141 183.988 560.739C183.488 561.169 183.318 561.519 183.278 561.499Z" fill="#263238"/>
<path d="M210.758 497.318C210.595 496.827 210.482 496.322 210.418 495.808C210.268 495.328 210.058 494.758 209.828 494.098C209.598 493.438 209.198 492.718 208.738 491.958C207.662 490.168 206.406 488.493 204.988 486.958C203.235 485.095 201.309 483.401 199.238 481.898C195.478 479.15 191.203 477.188 186.668 476.128C185.288 475.836 183.887 475.655 182.478 475.588C181.959 475.591 181.441 475.551 180.928 475.468C181.445 475.395 181.967 475.368 182.488 475.388C183.914 475.372 185.338 475.5 186.738 475.768C191.365 476.733 195.73 478.68 199.538 481.478C201.643 482.992 203.586 484.718 205.338 486.628C206.764 488.199 208.012 489.923 209.058 491.768C209.508 492.558 209.798 493.328 210.058 493.978C210.318 494.628 210.458 495.258 210.578 495.748C210.677 496.266 210.738 496.791 210.758 497.318Z" fill="#263238"/>
<path d="M350.509 582.779C350.496 582.659 350.496 582.538 350.509 582.419V581.369C350.509 580.449 350.439 579.099 350.309 577.369C349.946 572.454 348.937 567.609 347.309 562.959C346.819 561.418 346.147 559.941 345.309 558.559C344.373 557.087 343.013 555.932 341.409 555.249C338.059 553.809 334.029 553.999 329.929 553.769L303.089 552.639C280.909 551.639 261.179 550.839 248.779 550.179L248.949 550.039C248.199 554.599 247.599 558.209 247.189 560.719C246.979 561.929 246.819 562.869 246.699 563.539C246.649 563.839 246.599 564.079 246.569 564.269L246.509 564.509C246.5 564.426 246.5 564.342 246.509 564.259L246.609 563.529C246.699 562.859 246.839 561.909 247.009 560.689C247.389 558.179 247.929 554.559 248.619 549.989V549.849H248.769L303.079 552.109L329.919 553.319C331.979 553.419 333.989 553.469 335.919 553.629C337.842 553.736 339.735 554.161 341.519 554.889C343.199 555.594 344.628 556.789 345.619 558.319C346.465 559.732 347.136 561.243 347.619 562.819C349.225 567.499 350.181 572.378 350.459 577.319C350.569 579.059 350.569 580.419 350.559 581.319C350.559 581.759 350.559 582.109 350.559 582.369C350.519 582.649 350.509 582.779 350.509 582.779Z" fill="#263238"/>
<path d="M334.618 517.559C334.758 517.559 334.878 525.629 334.878 535.559C334.878 545.489 334.758 553.559 334.618 553.559C334.478 553.559 334.358 545.489 334.358 535.559C334.358 525.629 334.478 517.559 334.618 517.559Z" fill="#263238"/>
<path d="M173.198 476.489C173.198 476.489 173.138 476.719 172.998 477.149C172.858 477.579 172.608 478.229 172.398 479.149C171.908 480.879 171.288 483.459 170.598 486.829C169.208 493.569 167.498 503.429 165.598 515.769C164.648 521.949 163.598 528.769 162.598 536.079C162.088 539.749 161.768 543.569 161.508 547.529C161.248 551.489 161.038 555.529 160.878 559.769C160.578 568.179 160.398 577.059 160.638 586.309C160.718 588.619 160.798 590.959 160.988 593.309C161.048 594.489 161.248 595.649 161.388 596.819C161.602 597.988 161.886 599.144 162.238 600.279C162.95 602.573 164.075 604.719 165.558 606.609C167.046 608.531 169.001 610.039 171.238 610.989C175.999 613.324 180.963 615.218 186.068 616.649C191.238 618.199 196.578 619.449 201.998 620.559C213.792 622.994 225.766 624.452 237.798 624.919C243.499 625.065 249.203 624.918 254.888 624.479C260.458 624.089 265.888 623.479 271.138 622.729C281.038 621.326 290.795 619.057 300.298 615.949C308.436 613.262 316.325 609.876 323.878 605.829V606.159L291.618 594.689L282.908 591.579L280.658 590.759C280.148 590.569 279.898 590.459 279.898 590.459L280.668 590.709L282.938 591.479L291.678 594.479L324.078 605.779L324.468 605.909L324.108 606.109C316.541 610.188 308.635 613.604 300.478 616.319C290.955 619.456 281.174 621.748 271.248 623.169C265.988 623.959 260.548 624.549 254.968 624.939C249.267 625.385 243.546 625.539 237.828 625.399C225.765 624.938 213.761 623.48 201.938 621.039C196.498 619.919 191.148 618.669 185.938 617.119C180.803 615.669 175.809 613.758 171.018 611.409C168.688 610.429 166.649 608.865 165.098 606.869C163.582 604.927 162.433 602.724 161.708 600.369C161.346 599.215 161.055 598.039 160.838 596.849C160.688 595.649 160.498 594.469 160.438 593.289C160.248 590.929 160.168 588.579 160.098 586.289C159.858 577.009 160.098 568.129 160.378 559.709C160.538 555.509 160.755 551.425 161.028 547.459C161.298 543.459 161.628 539.659 162.148 535.989C163.148 528.639 164.208 521.849 165.148 515.679C167.148 503.339 168.888 493.489 170.338 486.759C171.058 483.389 171.698 480.809 172.218 479.079C172.438 478.209 172.718 477.569 172.858 477.139C172.998 476.709 173.198 476.489 173.198 476.489Z" fill="#263238"/>
<path d="M206.358 561.888C218.668 548.258 218.128 524.028 211.058 506.838C210.408 525.458 208.208 541.978 206.528 560.078" fill="#E0E0E0"/>
<path d="M211.088 510.318C211.11 510.518 211.11 510.719 211.088 510.918C211.088 511.368 211.028 511.918 210.978 512.618C210.858 514.168 210.698 516.288 210.488 518.868C210.048 524.208 209.488 531.458 208.798 539.478L207.178 560.098C206.988 562.678 206.828 564.798 206.708 566.348L206.558 568.038C206.546 568.237 206.52 568.434 206.478 568.628C206.449 568.433 206.449 568.234 206.478 568.038C206.478 567.588 206.478 567.038 206.528 566.328C206.578 564.848 206.688 562.708 206.828 560.068C207.138 554.788 207.638 547.488 208.298 539.438C208.958 531.388 209.618 524.108 210.148 518.838C210.418 516.258 210.638 514.148 210.798 512.598C210.888 511.908 210.958 511.348 211.008 510.908C211.008 510.709 211.035 510.51 211.088 510.318Z" fill="#263238"/>
<path d="M241.428 485.699C241.692 489.215 241.779 492.743 241.688 496.269C241.779 499.794 241.692 503.322 241.428 506.839C241.288 506.839 241.168 502.099 241.168 496.269C241.168 490.439 241.288 485.699 241.428 485.699Z" fill="#263238"/>
<path d="M233.408 520.809C233.618 522.853 234.405 524.795 235.678 526.409C236.838 527.919 239.188 529.409 241.078 529.279C242.502 529.351 243.921 529.053 245.195 528.413C246.469 527.774 247.556 526.814 248.348 525.629C250.648 521.969 251.218 514.339 249.348 509.829C248.078 506.729 245.228 503.829 241.878 503.759C237.478 503.659 234.718 506.839 233.778 510.059" fill="#E0E0E0"/>
<path d="M233.798 510.058C233.944 509.298 234.218 508.567 234.608 507.898C235.044 507.095 235.6 506.363 236.258 505.728C237.14 504.884 238.209 504.26 239.378 503.908C240.056 503.701 240.759 503.586 241.468 503.568C242.244 503.526 243.02 503.628 243.758 503.868C245.369 504.438 246.784 505.454 247.838 506.798C249.028 508.25 249.854 509.964 250.248 511.798C250.663 513.746 250.811 515.741 250.688 517.728C250.488 520.858 249.868 523.978 248.138 526.358C247.278 527.477 246.131 528.341 244.818 528.858C243.625 529.337 242.342 529.552 241.058 529.488C240.12 529.497 239.196 529.27 238.368 528.828C237.64 528.448 236.967 527.97 236.368 527.408C235.427 526.47 234.679 525.355 234.168 524.128C233.826 523.354 233.59 522.536 233.468 521.698C233.434 521.48 233.414 521.259 233.408 521.038C233.395 520.962 233.395 520.884 233.408 520.808C233.612 521.918 233.947 522.999 234.408 524.028C234.942 525.203 235.696 526.266 236.628 527.158C237.232 527.687 237.905 528.131 238.628 528.478C239.401 528.877 240.259 529.08 241.128 529.068C242.395 529.131 243.659 528.892 244.815 528.371C245.971 527.849 246.987 527.06 247.778 526.068C249.388 523.838 250.008 520.768 250.198 517.708C250.418 513.708 249.748 509.768 247.498 507.108C246.492 505.833 245.148 504.866 243.618 504.318C242.925 504.089 242.198 503.984 241.468 504.008C240.792 504.016 240.119 504.113 239.468 504.298C238.35 504.621 237.323 505.199 236.468 505.988C235.814 506.586 235.252 507.277 234.798 508.038C234.427 508.692 234.093 509.367 233.798 510.058Z" fill="#263238"/>
<path d="M231.068 521.008C231.279 523.052 232.067 524.994 233.338 526.608C234.488 528.118 236.848 529.608 238.738 529.478C240.162 529.55 241.58 529.251 242.854 528.612C244.129 527.972 245.215 527.013 246.008 525.828C248.308 522.158 248.878 514.538 247.008 510.028C245.738 506.918 242.888 504.028 239.538 503.958C237.677 503.942 235.866 504.555 234.396 505.696C232.926 506.838 231.884 508.441 231.438 510.248" fill="#E0E0E0"/>
<path d="M231.458 510.248C231.605 509.491 231.879 508.764 232.268 508.098C232.704 507.295 233.26 506.563 233.918 505.928C235.32 504.577 237.181 503.805 239.128 503.768C239.904 503.727 240.68 503.828 241.418 504.068C243.029 504.638 244.444 505.654 245.498 506.998C246.689 508.448 247.512 510.163 247.898 511.998C248.322 513.945 248.473 515.94 248.348 517.928C248.148 521.058 247.528 524.168 245.798 526.558C244.938 527.677 243.791 528.541 242.478 529.058C241.285 529.537 240.002 529.752 238.718 529.688C237.78 529.694 236.855 529.463 236.028 529.018C235.299 528.645 234.625 528.17 234.028 527.608C233.081 526.671 232.333 525.552 231.828 524.318C231.486 523.547 231.251 522.733 231.128 521.898C231.128 521.608 231.068 521.388 231.058 521.238C231.048 521.162 231.048 521.085 231.058 521.008C231.263 522.114 231.599 523.192 232.058 524.218C232.586 525.4 233.34 526.467 234.278 527.358C234.882 527.887 235.555 528.331 236.278 528.678C237.052 529.072 237.91 529.275 238.778 529.268C240.044 529.33 241.305 529.09 242.46 528.568C243.614 528.047 244.628 527.258 245.418 526.268C247.038 524.028 247.658 520.968 247.848 517.908C248.068 513.908 247.398 509.968 245.148 507.308C244.158 506.022 242.823 505.044 241.298 504.488C240.609 504.259 239.884 504.154 239.158 504.178C237.302 504.207 235.522 504.919 234.158 506.178C233.505 506.776 232.942 507.467 232.488 508.228C232.103 508.879 231.759 509.554 231.458 510.248Z" fill="#263238"/>
<path d="M235.318 509.129C234.209 508.988 233.084 509.214 232.114 509.771C231.145 510.329 230.384 511.189 229.948 512.219C229.118 514.316 229.118 516.651 229.948 518.749C230.292 519.835 230.861 520.837 231.618 521.689C232.39 522.547 233.467 523.067 234.618 523.139C235.452 523.092 236.262 522.846 236.98 522.421C237.699 521.997 238.305 521.406 238.748 520.699C239.522 519.597 240.049 518.342 240.292 517.018C240.536 515.694 240.49 514.333 240.158 513.029C239.698 511.289 238.418 509.519 236.628 509.469" fill="#E0E0E0"/>
<path d="M236.619 509.469C236.619 509.469 236.759 509.469 237.019 509.469C237.404 509.513 237.776 509.639 238.109 509.839C238.698 510.232 239.203 510.738 239.595 511.329C239.986 511.92 240.256 512.582 240.389 513.279C240.876 515.33 240.658 517.487 239.769 519.399C239.27 520.545 238.501 521.553 237.529 522.339C237.006 522.79 236.382 523.109 235.711 523.271C235.04 523.433 234.34 523.432 233.669 523.269C232.358 522.851 231.257 521.95 230.589 520.749C229.975 519.673 229.543 518.504 229.309 517.289C229.058 516.273 229.018 515.217 229.19 514.186C229.362 513.154 229.743 512.168 230.309 511.289C230.714 510.708 231.23 510.213 231.827 509.832C232.424 509.451 233.091 509.191 233.789 509.069C234.17 509.012 234.557 509.012 234.939 509.069C235.189 509.119 235.319 509.159 235.319 509.179C234.82 509.161 234.321 509.192 233.829 509.269C232.51 509.575 231.358 510.372 230.609 511.499C230.091 512.348 229.75 513.294 229.607 514.279C229.465 515.264 229.523 516.267 229.779 517.229C230.012 518.386 230.434 519.498 231.029 520.519C231.632 521.604 232.626 522.419 233.809 522.799C234.401 522.943 235.02 522.945 235.613 522.802C236.206 522.659 236.757 522.377 237.219 521.979C238.126 521.24 238.851 520.302 239.339 519.239C240.204 517.421 240.447 515.368 240.029 513.399C239.818 512.066 239.102 510.866 238.029 510.049C237.599 509.77 237.12 509.573 236.619 509.469Z" fill="#263238"/>
<path d="M240.358 525.568C240.278 525.568 240.168 525.248 239.828 524.848C239.37 524.334 238.778 523.956 238.118 523.758C237.435 523.562 236.729 523.451 236.018 523.428C235.468 523.428 235.108 523.338 235.108 523.268C235.108 523.198 235.448 523.118 236.018 523.058C236.778 522.978 237.545 523.045 238.278 523.258C239.042 523.478 239.7 523.969 240.128 524.638C240.438 525.158 240.418 525.558 240.358 525.568Z" fill="#263238"/>
<path d="M241.148 507.769C241.148 507.769 240.988 508.119 240.528 508.489C239.91 508.961 239.186 509.277 238.418 509.409C237.653 509.548 236.865 509.507 236.118 509.289C235.558 509.099 235.258 508.879 235.288 508.819C236.281 508.973 237.289 509 238.288 508.899C239.284 508.641 240.245 508.262 241.148 507.769Z" fill="#263238"/>
<path d="M309.858 436.139C309.858 436.139 309.978 436.139 310.188 436.259C310.494 436.395 310.791 436.548 311.078 436.719C312.151 437.325 313.156 438.042 314.078 438.859C317.153 441.567 319.388 445.1 320.518 449.039C321.702 452.907 322.522 456.878 322.968 460.899C323.148 462.439 323.238 463.689 323.298 464.549C323.349 464.997 323.349 465.45 323.298 465.899C323.186 465.463 323.112 465.018 323.078 464.569C322.948 463.619 322.778 462.399 322.588 460.949C322.035 456.967 321.169 453.035 319.998 449.189C318.886 445.338 316.75 441.861 313.818 439.129C312.574 438.036 311.25 437.036 309.858 436.139Z" fill="#263238"/>
<path d="M297.398 546.209C300.298 546.099 302.618 543.209 305.518 543.369C306.044 543.413 306.555 543.561 307.023 543.803C307.491 544.046 307.907 544.378 308.247 544.781C308.587 545.184 308.844 545.65 309.004 546.152C309.164 546.654 309.223 547.183 309.178 547.709C309.134 548.234 308.986 548.745 308.744 549.214C308.501 549.682 308.169 550.098 307.766 550.438C307.363 550.777 306.897 551.035 306.395 551.194C305.893 551.354 305.364 551.413 304.838 551.369C301.788 551.019 300.008 547.449 297.028 546.769" fill="#263238"/>
<path d="M321.979 548.679C321.071 548.677 320.165 548.604 319.269 548.459L319.429 547.459C323.009 548.029 326.019 547.459 328.369 545.709C331.369 543.539 333.239 539.649 334.039 534.149V533.939C334.369 531.759 334.819 488.989 334.819 480.869C334.819 468.179 323.689 466.449 323.209 466.379C322.729 466.309 312.639 464.609 307.269 478.459C301.649 492.969 292.659 520.929 292.069 524.209C291.989 524.609 291.879 525.109 291.759 525.679C290.819 529.879 288.879 538.609 294.699 543.629C301.189 549.239 306.309 547.069 306.519 546.979L306.929 547.889C306.689 547.989 301.049 550.439 294.049 544.389C287.769 538.969 289.799 529.849 290.779 525.459C290.909 524.899 291.009 524.459 291.079 524.029C291.679 520.729 300.699 492.649 306.339 478.099C311.979 463.549 323.259 465.369 323.339 465.399C323.419 465.429 335.779 467.299 335.779 480.869C335.779 487.559 335.339 531.769 334.989 534.089V534.289C334.149 540.069 332.109 544.179 328.919 546.519C326.899 547.969 324.464 548.727 321.979 548.679Z" fill="#263238"/>
<path d="M335.349 489.059C334.905 487.299 334.204 485.614 333.269 484.059C332.205 482.418 330.869 480.971 329.319 479.779C327.41 478.338 325.219 477.315 322.889 476.779C318.609 475.837 314.134 476.42 310.239 478.429C308.648 479.298 307.167 480.356 305.829 481.579C305.892 481.469 305.969 481.368 306.059 481.279C306.287 480.993 306.538 480.725 306.809 480.479C307.781 479.546 308.874 478.749 310.059 478.109C314.01 475.946 318.612 475.292 323.009 476.269C325.41 476.836 327.661 477.914 329.609 479.429C331.202 480.663 332.558 482.178 333.609 483.899C334.312 485.051 334.832 486.306 335.149 487.619C335.243 487.974 335.313 488.334 335.359 488.699C335.359 488.919 335.369 489.059 335.349 489.059Z" fill="#263238"/>
<path d="M360.818 568.999C360.449 567.551 359.988 566.128 359.438 564.739C358.017 561.424 355.661 558.596 352.658 556.599C350.977 555.571 349.107 554.891 347.158 554.599C345.551 554.349 343.933 554.182 342.308 554.099L339.018 553.869C338.614 553.858 338.212 553.804 337.818 553.709C338.22 553.66 338.627 553.66 339.028 553.709L342.328 553.769C343.968 553.805 345.604 553.939 347.228 554.169C349.25 554.432 351.194 555.113 352.938 556.169C356.029 558.215 358.417 561.161 359.778 564.609C360.195 565.637 360.503 566.706 360.698 567.799C360.791 568.192 360.832 568.595 360.818 568.999Z" fill="#263238"/>
<path d="M310.368 552.319C310.368 552.319 320.208 537.429 322.718 535.479C325.228 533.529 346.718 523.829 349.208 525.389C351.698 526.949 350.208 530.329 350.208 530.329C350.208 530.329 359.288 527.149 360.258 528.399C360.78 529.15 361.059 530.044 361.059 530.959C361.059 531.874 360.78 532.767 360.258 533.519C360.258 533.519 365.258 532.749 365.258 534.299C365.238 535.34 364.963 536.36 364.458 537.27C363.952 538.18 363.231 538.952 362.358 539.519C360.038 541.259 344.948 551.299 343.738 554.079L338.848 553.779L310.368 552.319Z" fill="#FFBE9D"/>
<path d="M338.668 548.048C338.779 547.718 338.931 547.402 339.118 547.108C339.597 546.294 340.139 545.518 340.738 544.788C342.749 542.39 345.162 540.36 347.868 538.788C350.561 537.213 353.385 535.875 356.308 534.788C357.418 534.358 358.308 534.038 358.958 533.788C359.279 533.655 359.615 533.561 359.958 533.508C359.672 533.707 359.359 533.865 359.028 533.978L356.438 535.088C353.583 536.257 350.81 537.616 348.138 539.158C345.48 540.709 343.079 542.662 341.018 544.948C339.458 546.798 338.758 548.098 338.668 548.048Z" fill="#EB996E"/>
<path d="M326.198 547.809C326.315 547.428 326.476 547.062 326.678 546.719C327.018 546.029 327.508 545.039 328.188 543.839C328.973 542.429 329.879 541.09 330.898 539.839C331.503 539.078 332.194 538.39 332.958 537.789C333.788 537.229 334.658 536.709 335.568 536.169C338.643 534.336 341.852 532.738 345.168 531.389C346.173 530.991 347.202 530.657 348.248 530.389C348.633 530.278 349.029 530.207 349.428 530.179C349.428 530.269 347.798 530.649 345.308 531.769C342.055 533.211 338.889 534.844 335.828 536.659C334.928 537.189 334.058 537.719 333.248 538.249C332.512 538.816 331.841 539.463 331.248 540.179C330.223 541.401 329.3 542.705 328.488 544.079L326.828 546.859C326.653 547.197 326.442 547.516 326.198 547.809Z" fill="#EB996E"/>
<path d="M508.035 384.147C503.915 394.447 497.335 411.097 494.305 418.747C493.879 419.831 493.9 421.039 494.363 422.107C494.826 423.176 495.693 424.017 496.776 424.447L524.915 435.657C525.452 435.871 526.025 435.978 526.603 435.97C527.18 435.962 527.751 435.84 528.281 435.612C528.811 435.383 529.292 435.052 529.694 434.638C530.096 434.224 530.413 433.734 530.625 433.197L544.276 398.877C544.751 397.685 544.988 396.412 544.971 395.129C544.954 393.846 544.684 392.578 544.177 391.4C543.67 390.221 542.935 389.154 542.015 388.26C541.095 387.365 540.008 386.661 538.816 386.187L540.816 381.187L522.396 373.877L520.495 378.617H520.425C518.046 377.752 515.424 377.845 513.112 378.877C510.801 379.909 508.98 381.798 508.035 384.147Z" fill="#F5F5F5"/>
<path d="M522.145 374.487L521.235 376.777L539.395 384.777L540.575 381.827L522.145 374.487Z" fill="#E0E0E0"/>
<path d="M525.839 367.107L543.016 373.949C543.755 374.244 544.347 374.82 544.662 375.55C544.976 376.281 544.987 377.107 544.693 377.846L542.872 382.417C542.683 382.893 542.312 383.273 541.842 383.476C541.372 383.678 540.84 383.685 540.365 383.496L521.209 375.865C520.733 375.675 520.352 375.305 520.15 374.835C519.948 374.365 519.941 373.833 520.13 373.358L521.951 368.787C522.245 368.048 522.821 367.456 523.552 367.141C524.283 366.827 525.109 366.816 525.848 367.11L525.839 367.107Z" fill="#EBEBEB"/>
<path d="M522.335 376.307C522.697 374.71 523.223 373.155 523.905 371.667C524.438 370.114 525.128 368.619 525.965 367.207C525.605 368.814 525.079 370.379 524.395 371.877C523.873 373.425 523.182 374.91 522.335 376.307Z" fill="#E0E0E0"/>
<path d="M524.766 377.277C525.127 375.677 525.654 374.119 526.336 372.627C526.857 371.072 527.548 369.58 528.396 368.177C528.034 369.777 527.508 371.335 526.826 372.827C526.304 374.381 525.614 375.874 524.766 377.277Z" fill="#E0E0E0"/>
<path d="M527.195 378.247C527.556 376.646 528.082 375.088 528.765 373.597C529.288 372.04 529.979 370.544 530.825 369.137C530.467 370.738 529.94 372.296 529.255 373.787C528.723 375.34 528.033 376.834 527.195 378.247Z" fill="#E0E0E0"/>
<path d="M529.625 379.217C529.979 377.615 530.505 376.055 531.195 374.567C531.718 373.01 532.409 371.514 533.255 370.107C532.893 371.708 532.363 373.266 531.675 374.757C531.146 376.31 530.459 377.804 529.625 379.217Z" fill="#E0E0E0"/>
<path d="M532.056 380.177C532.412 378.576 532.938 377.017 533.626 375.527C534.135 373.978 534.805 372.487 535.626 371.077C535.27 372.679 534.743 374.238 534.056 375.727C533.546 377.276 532.876 378.768 532.056 380.177Z" fill="#E0E0E0"/>
<path d="M534.496 381.147C534.858 379.546 535.388 377.988 536.076 376.497C536.605 374.944 537.292 373.45 538.126 372.037C537.773 373.639 537.246 375.199 536.556 376.687C536.033 378.244 535.342 379.74 534.496 381.147Z" fill="#E0E0E0"/>
<path d="M536.905 382.117C537.264 380.516 537.79 378.957 538.475 377.467C539.008 375.914 539.698 374.419 540.535 373.007C540.175 374.607 539.649 376.166 538.965 377.657C538.443 379.214 537.752 380.709 536.905 382.117Z" fill="#E0E0E0"/>
<path d="M539.335 383.077C539.697 381.48 540.223 379.925 540.905 378.437C541.428 376.88 542.119 375.384 542.965 373.977C542.604 375.577 542.077 377.135 541.395 378.627C540.869 380.18 540.179 381.671 539.335 383.077Z" fill="#E0E0E0"/>
<path d="M536.206 401.16L512.553 391.738C511.794 391.435 510.933 391.806 510.631 392.565L504.769 407.28C504.466 408.04 504.836 408.9 505.596 409.203L529.248 418.625C530.008 418.927 530.868 418.557 531.171 417.798L537.033 403.082C537.335 402.323 536.965 401.462 536.206 401.16Z" fill="#EBEBEB"/>
<path d="M529.356 417.237C529.383 417.135 529.417 417.035 529.456 416.937L529.756 416.117L530.926 413.027C531.926 410.357 533.426 406.587 535.206 402.027L535.316 402.297L512.156 393.127C512.086 393.127 512.796 392.857 512.496 392.987V393.047L512.446 393.177L512.346 393.427L512.146 393.927L511.746 394.927C511.476 395.587 511.216 396.247 510.956 396.927C510.436 398.237 509.956 399.527 509.406 400.797L506.486 408.087L506.356 407.777L522.916 414.497L527.676 416.497L528.956 417.037C529.109 417.099 529.259 417.169 529.406 417.247L528.986 417.107L527.736 416.637L522.976 414.817L506.176 408.247L505.956 408.167L506.046 407.937C506.966 405.617 507.926 403.177 508.936 400.637C509.436 399.367 509.936 398.077 510.476 396.767C510.736 396.107 510.996 395.447 511.266 394.767L511.656 393.767L511.866 393.267L511.966 393.017L512.016 392.887V392.827L512.366 392.677L535.496 401.877L535.686 401.957L535.606 402.147C533.726 406.747 532.176 410.527 531.086 413.217L529.826 416.217L529.496 416.987C529.416 417.167 529.369 417.25 529.356 417.237Z" fill="#E0E0E0"/>
<path d="M529.855 405.557C527.133 404.756 524.461 403.791 521.855 402.667C519.199 401.703 516.604 400.578 514.085 399.297C516.81 400.093 519.481 401.058 522.085 402.187C524.742 403.151 527.336 404.276 529.855 405.557Z" fill="#E0E0E0"/>
<path d="M528.795 408.227C526.071 407.433 523.399 406.467 520.795 405.337C518.141 404.369 515.546 403.243 513.025 401.967C515.749 402.765 518.421 403.73 521.025 404.857C523.681 405.823 526.276 406.948 528.795 408.227Z" fill="#E0E0E0"/>
<path d="M527.775 410.797C525.05 410.005 522.378 409.039 519.775 407.907C517.12 406.941 514.525 405.816 512.005 404.537C514.73 405.331 517.402 406.297 520.005 407.427C522.66 408.395 525.255 409.521 527.775 410.797Z" fill="#E0E0E0"/>
<path d="M537.826 385.647C534.878 384.755 531.983 383.697 529.156 382.477C526.26 381.415 523.426 380.193 520.666 378.817C523.618 379.704 526.516 380.762 529.346 381.987C532.238 383.047 535.07 384.269 537.826 385.647Z" fill="#E0E0E0"/>
<path d="M496.615 417.367C496.76 416.8 496.947 416.245 497.175 415.707C497.605 414.577 498.175 413.077 498.875 411.257C500.325 407.507 502.365 402.347 504.655 396.657C505.805 393.817 506.895 391.107 507.905 388.657C508.686 386.399 509.929 384.328 511.555 382.577C512.705 381.42 514.194 380.66 515.805 380.407C516.24 380.357 516.68 380.357 517.115 380.407C517.266 380.423 517.414 380.46 517.555 380.517C516.98 380.507 516.405 380.541 515.835 380.617C514.309 380.943 512.915 381.719 511.835 382.847C510.284 384.591 509.104 386.632 508.365 388.847C507.365 391.327 506.295 394.037 505.155 396.847C502.875 402.537 500.775 407.687 499.235 411.397L497.385 415.777C497.175 416.328 496.917 416.86 496.615 417.367Z" fill="white"/>
<path d="M528.236 435.457C527.839 435.199 527.471 434.901 527.136 434.567C526.796 434.257 526.366 433.897 525.856 433.497C525.346 433.097 524.796 432.607 524.126 432.137C522.599 430.991 521.006 429.936 519.356 428.977C517.329 427.835 515.228 426.833 513.066 425.977C510.892 425.124 508.664 424.419 506.396 423.867C504.54 423.423 502.66 423.09 500.766 422.867C499.956 422.747 499.216 422.717 498.576 422.657C497.936 422.597 497.366 422.577 496.916 422.567C496.44 422.57 495.965 422.533 495.496 422.457C495.964 422.376 496.44 422.342 496.916 422.357C497.376 422.357 497.916 422.357 498.586 422.357C499.256 422.357 499.986 422.357 500.796 422.487C502.716 422.655 504.624 422.949 506.506 423.367C508.806 423.902 511.065 424.6 513.266 425.457C515.452 426.345 517.571 427.391 519.606 428.587C521.258 429.577 522.844 430.673 524.356 431.867C525.006 432.357 525.556 432.867 526.046 433.297C526.472 433.656 526.879 434.036 527.266 434.437C527.62 434.746 527.944 435.088 528.236 435.457Z" fill="white"/>
<path d="M510.28 257.992H503.68V287.582H510.28V257.992Z" fill="#0694A2"/>
<path d="M492.18 269.482V276.082H521.77V269.482H492.18Z" fill="#0694A2"/>
<path d="M531.55 272.862C531.525 272.73 531.509 272.596 531.5 272.462C531.5 272.172 531.45 271.782 531.42 271.292C531.42 271.032 531.42 270.742 531.36 270.432C531.3 270.122 531.26 269.772 531.2 269.432C531.089 268.574 530.915 267.725 530.68 266.892C530.101 264.593 529.177 262.394 527.94 260.372C525.025 255.485 520.496 251.769 515.134 249.865C509.772 247.961 503.914 247.988 498.57 249.942C497.475 250.333 496.409 250.801 495.38 251.342C494.337 251.915 493.334 252.56 492.38 253.272C491.406 253.994 490.481 254.779 489.61 255.622C488.753 256.512 487.954 257.457 487.22 258.452C485.706 260.492 484.528 262.76 483.73 265.172C482.05 270.171 482.05 275.582 483.73 280.582C484.526 282.994 485.704 285.263 487.22 287.302C487.949 288.3 488.748 289.246 489.61 290.132C490.478 290.981 491.404 291.769 492.38 292.492C493.334 293.204 494.337 293.848 495.38 294.422C496.411 294.958 497.477 295.426 498.57 295.822C503.914 297.761 509.766 297.781 515.124 295.881C520.482 293.98 525.013 290.275 527.94 285.402C529.179 283.377 530.103 281.175 530.68 278.872C530.916 278.043 531.09 277.197 531.2 276.342C531.26 275.962 531.33 275.622 531.36 275.342C531.39 275.062 531.36 274.742 531.42 274.482C531.42 273.982 531.48 273.602 531.5 273.312C531.508 273.177 531.524 273.044 531.55 272.912C531.561 273.045 531.561 273.179 531.55 273.312C531.55 273.602 531.55 273.992 531.55 274.482V275.352C531.55 275.672 531.46 276.012 531.42 276.352C531.321 277.215 531.16 278.071 530.94 278.912C530.386 281.246 529.479 283.482 528.25 285.542C526.447 288.586 524.014 291.209 521.115 293.237C518.216 295.266 514.918 296.651 511.44 297.302C507.09 298.108 502.604 297.746 498.44 296.252C497.327 295.849 496.241 295.375 495.19 294.832C493.041 293.648 491.06 292.181 489.3 290.472C488.421 289.57 487.605 288.607 486.86 287.592C485.304 285.511 484.098 283.191 483.29 280.722C482.466 278.178 482.031 275.525 482 272.852C482.037 270.182 482.471 267.533 483.29 264.992C484.103 262.528 485.308 260.211 486.86 258.132C487.608 257.115 488.423 256.149 489.3 255.242C490.191 254.385 491.136 253.587 492.13 252.852C494.873 250.829 498.002 249.391 501.324 248.629C504.646 247.867 508.09 247.796 511.44 248.422C514.901 249.087 518.18 250.48 521.061 252.509C523.942 254.538 526.358 257.157 528.15 260.192C529.377 262.249 530.284 264.481 530.84 266.812C531.059 267.656 531.22 268.515 531.32 269.382C531.32 269.752 531.43 270.102 531.45 270.382V271.242C531.45 271.742 531.45 272.132 531.45 272.422C531.497 272.565 531.53 272.712 531.55 272.862Z" fill="#0694A2"/>
<path d="M154.601 321.045L77.1716 358.309C75.9723 358.887 75.4679 360.327 76.0451 361.526L128.019 469.52C128.596 470.72 130.037 471.224 131.236 470.647L208.665 433.382C209.865 432.805 210.369 431.365 209.792 430.166L157.818 322.172C157.241 320.972 155.8 320.468 154.601 321.045Z" fill="#E0E0E0"/>
<path d="M153.367 324.588L80.7227 359.549L131.044 464.11L203.689 429.149L153.367 324.588Z" fill="#FAFAFA"/>
<path d="M132.579 336.538C131.128 335.415 129.393 334.719 127.568 334.528C125.743 334.337 123.901 334.659 122.249 335.458L120.019 331.068C119.241 329.459 117.859 328.222 116.173 327.628C114.486 327.034 112.634 327.131 111.019 327.898C110.215 328.284 109.496 328.825 108.901 329.489C108.307 330.154 107.849 330.929 107.555 331.771C107.26 332.612 107.135 333.504 107.185 334.394C107.236 335.284 107.461 336.155 107.849 336.958L110.079 341.588L108.529 342.368C106.911 343.181 105.548 344.422 104.587 345.956C103.626 347.49 103.104 349.258 103.079 351.068V353.368L134.709 338.148L132.579 336.538ZM115.699 337.258C115.048 337.57 114.32 337.682 113.606 337.58C112.892 337.477 112.224 337.166 111.687 336.685C111.15 336.203 110.767 335.573 110.588 334.875C110.408 334.176 110.439 333.44 110.678 332.759C110.917 332.078 111.351 331.484 111.928 331.05C112.504 330.616 113.196 330.363 113.916 330.322C114.637 330.281 115.353 330.455 115.974 330.821C116.596 331.187 117.095 331.729 117.409 332.378C117.618 332.811 117.74 333.28 117.767 333.76C117.794 334.24 117.726 334.72 117.567 335.173C117.408 335.627 117.162 336.044 116.841 336.402C116.52 336.76 116.132 337.051 115.699 337.258Z" fill="#EBEBEB"/>
<path d="M114.779 361.399C114.849 361.529 110.489 363.759 105.049 366.399C99.609 369.039 95.149 371.029 95.049 370.899C94.949 370.769 99.339 368.539 104.779 365.899C110.219 363.259 114.719 361.269 114.779 361.399Z" fill="#E0E0E0"/>
<path d="M106.179 369.628C104.723 370.619 103.172 371.463 101.549 372.148C99.9998 372.975 98.3718 373.645 96.6895 374.148C98.1585 373.175 99.7192 372.348 101.349 371.678C102.892 370.845 104.509 370.159 106.179 369.628Z" fill="#E0E0E0"/>
<path d="M156.909 356.618C156.969 356.738 144.749 362.758 129.609 370.038C114.469 377.318 102.149 383.128 102.089 383.038C102.029 382.948 114.249 376.858 129.349 369.568C144.449 362.278 156.849 356.488 156.909 356.618Z" fill="#E0E0E0"/>
<path d="M159.429 361.839C159.489 361.969 147.269 367.979 132.129 375.269C116.989 382.559 104.669 388.359 104.609 388.269C104.549 388.179 116.759 382.129 131.909 374.839C147.059 367.549 159.349 361.709 159.429 361.839Z" fill="#E0E0E0"/>
<path d="M161.939 367.069C162.009 367.199 149.779 373.209 134.649 380.499C119.519 387.789 107.189 393.589 107.119 393.499C107.049 393.409 119.279 387.359 134.419 380.069C149.559 372.779 161.879 366.939 161.939 367.069Z" fill="#E0E0E0"/>
<path d="M164.459 372.299C164.519 372.429 152.299 378.439 137.159 385.729C122.019 393.019 109.699 398.809 109.639 398.729C109.579 398.649 121.799 392.589 136.939 385.309C152.079 378.029 164.399 372.169 164.459 372.299Z" fill="#E0E0E0"/>
<path d="M166.979 377.518C167.039 377.648 154.819 383.668 139.679 390.948C124.539 398.228 112.219 404.038 112.159 403.948C112.099 403.858 124.349 397.768 139.449 390.478C154.549 383.188 166.909 377.398 166.979 377.518Z" fill="#E0E0E0"/>
<path d="M169.489 382.748C169.549 382.878 157.329 388.888 142.199 396.178C127.069 403.468 114.729 409.268 114.669 409.178C114.609 409.088 126.829 403.038 141.969 395.748C157.109 388.458 169.429 382.618 169.489 382.748Z" fill="#E0E0E0"/>
<path d="M144.349 400.658C144.041 400.9 143.705 401.104 143.349 401.268L140.449 402.758C137.989 403.988 134.569 405.668 130.789 407.488C127.009 409.308 123.559 410.938 121.059 412.088L118.059 413.428C117.705 413.614 117.329 413.755 116.939 413.848C117.253 413.614 117.588 413.41 117.939 413.238L120.839 411.758C123.299 410.518 126.719 408.838 130.499 407.018C134.279 405.198 137.729 403.578 140.229 402.428L143.229 401.088C143.585 400.903 143.961 400.759 144.349 400.658Z" fill="#E0E0E0"/>
<path d="M152.999 342.418C151.66 343.351 150.225 344.139 148.719 344.768C147.291 345.554 145.782 346.185 144.219 346.648C145.559 345.716 146.993 344.928 148.499 344.298C149.928 343.513 151.436 342.882 152.999 342.418Z" fill="#E0E0E0"/>
<path d="M137.349 418.068C135.101 419.444 132.762 420.667 130.349 421.728C128.011 422.948 125.596 424.014 123.119 424.918C125.368 423.543 127.706 422.32 130.119 421.258C132.457 420.038 134.872 418.973 137.349 418.068Z" fill="#E0E0E0"/>
<path d="M140.129 422.568C137.84 423.961 135.462 425.2 133.009 426.278C130.633 427.521 128.177 428.607 125.659 429.528C127.951 428.137 130.329 426.895 132.779 425.808C135.157 424.571 137.612 423.489 140.129 422.568Z" fill="#E0E0E0"/>
<path d="M178.349 397.458C177.336 398.241 176.219 398.877 175.029 399.348C173.913 399.983 172.715 400.461 171.469 400.768C172.491 399.995 173.611 399.359 174.799 398.878C175.914 398.25 177.108 397.772 178.349 397.458Z" fill="#E0E0E0"/>
<path d="M180.619 401.619C179.597 402.392 178.478 403.028 177.289 403.509C176.174 404.137 174.98 404.615 173.739 404.929C174.752 404.147 175.87 403.51 177.059 403.039C178.175 402.404 179.373 401.927 180.619 401.619Z" fill="#E0E0E0"/>
<path d="M135.889 430.749C134.909 431.504 133.829 432.12 132.679 432.579C131.601 433.191 130.443 433.652 129.239 433.949C130.218 433.178 131.298 432.545 132.449 432.069C133.53 431.472 134.687 431.028 135.889 430.749Z" fill="#E0E0E0"/>
<path d="M183.249 406.488C182.556 407.11 181.752 407.595 180.879 407.918C180.074 408.402 179.191 408.741 178.269 408.918C178.965 408.293 179.772 407.805 180.649 407.478C181.447 406.991 182.329 406.655 183.249 406.488Z" fill="#E0E0E0"/>
<path d="M134.219 445.408C134.305 445.329 134.399 445.259 134.499 445.198L135.339 444.638L138.569 442.568L150.179 435.278L150.409 435.128L150.509 435.378C151.058 436.79 151.104 438.347 150.639 439.788C150.403 440.57 149.993 441.288 149.438 441.887C148.884 442.487 148.2 442.952 147.439 443.248C146.625 443.576 145.743 443.698 144.87 443.602C143.998 443.506 143.163 443.195 142.439 442.698C141.716 442.139 141.173 441.378 140.88 440.512C140.586 439.646 140.555 438.712 140.789 437.828C140.969 437.149 141.313 436.525 141.789 436.008C141.906 435.878 142.033 435.758 142.169 435.648C142.304 435.525 142.456 435.421 142.619 435.338C142.727 435.282 142.847 435.253 142.969 435.253C143.091 435.253 143.211 435.282 143.319 435.338C143.49 435.455 143.627 435.613 143.719 435.798C144.323 436.942 144.664 438.206 144.719 439.498C144.795 440.742 144.601 441.987 144.149 443.148C143.767 444.31 143.011 445.312 141.999 445.998C141.486 446.305 140.897 446.46 140.299 446.448C139.702 446.436 139.119 446.256 138.619 445.928C137.688 445.342 136.982 444.457 136.619 443.418C136.157 441.563 136.157 439.623 136.619 437.768L136.679 437.388L136.939 437.678C138 438.887 138.667 440.391 138.849 441.988C138.989 443.182 138.873 444.393 138.509 445.538C138.277 446.251 137.94 446.925 137.509 447.538C137.349 447.748 137.219 447.888 137.129 447.988C137.039 448.088 136.999 448.138 136.989 448.128C137.572 447.319 138.021 446.421 138.319 445.468C138.633 444.347 138.715 443.173 138.559 442.018C138.362 440.491 137.703 439.06 136.669 437.918L136.989 437.828C136.544 439.614 136.544 441.482 136.989 443.268C137.325 444.208 137.97 445.005 138.819 445.528C139.248 445.807 139.746 445.96 140.257 445.969C140.768 445.978 141.272 445.843 141.709 445.578C142.622 444.942 143.303 444.026 143.649 442.968C144.064 441.865 144.241 440.685 144.169 439.508C144.097 438.292 143.755 437.107 143.169 436.038C143.126 435.931 143.053 435.837 142.959 435.768C142.926 435.749 142.888 435.739 142.849 435.739C142.811 435.739 142.773 435.749 142.739 435.768C142.493 435.91 142.273 436.092 142.089 436.308C141.685 436.763 141.397 437.308 141.249 437.898C141.041 438.684 141.068 439.513 141.328 440.283C141.587 441.053 142.068 441.73 142.709 442.228C143.357 442.666 144.101 442.941 144.878 443.028C145.654 443.115 146.441 443.012 147.169 442.728C147.862 442.461 148.485 442.039 148.991 441.495C149.497 440.951 149.872 440.299 150.089 439.588C150.532 438.255 150.5 436.811 149.999 435.498L150.329 435.608L138.619 442.738L135.319 444.738L134.449 445.238C134.379 445.303 134.302 445.36 134.219 445.408Z" fill="#E0E0E0"/>
<path d="M186.139 420.198C186.136 420.518 186.082 420.836 185.979 421.138C185.878 421.512 185.723 421.869 185.519 422.198C185.24 422.674 184.795 423.03 184.269 423.198C183.945 423.309 183.593 423.309 183.269 423.198C182.935 423.061 182.645 422.837 182.429 422.548C182.019 421.937 181.645 421.303 181.309 420.648L178.859 416.068L179.309 415.968C179.229 418.258 179.149 420.758 179.049 423.378C179.049 424.008 179.049 424.618 178.979 425.228V426.228L178.529 425.298C177.159 422.488 175.889 419.858 174.769 417.578H175.189C174.546 419.857 174.21 422.211 174.189 424.578C174.189 426.288 174.299 427.258 174.249 427.268C174.163 427.044 174.112 426.808 174.099 426.568C174.008 425.905 173.952 425.237 173.929 424.568C173.84 422.18 174.103 419.791 174.709 417.478L174.859 416.898L175.119 417.438L178.949 425.128L178.449 425.228C178.449 424.628 178.449 424.008 178.519 423.378C178.629 420.758 178.729 418.258 178.819 415.968V415.068L179.229 415.858C180.109 417.508 180.919 419.048 181.649 420.428C181.965 421.077 182.315 421.708 182.699 422.318C182.845 422.56 183.065 422.749 183.325 422.859C183.585 422.968 183.874 422.993 184.149 422.928C184.546 422.789 184.903 422.553 185.187 422.242C185.471 421.932 185.675 421.556 185.779 421.148C185.877 420.824 185.998 420.507 186.139 420.198Z" fill="#E0E0E0"/>
<path d="M186.039 416.458C186.119 416.568 181.989 419.518 176.819 423.038C171.649 426.558 167.389 429.308 167.309 429.188C167.229 429.068 171.309 426.128 176.529 422.608C181.749 419.088 185.959 416.338 186.039 416.458Z" fill="#E0E0E0"/>
<path d="M191.109 417.329C188.976 419.508 186.719 421.561 184.349 423.479C182.095 425.533 179.724 427.456 177.249 429.239C179.385 427.063 181.642 425.009 184.009 423.089C186.263 421.034 188.634 419.111 191.109 417.329Z" fill="#E0E0E0"/>
<path d="M373.51 294.232H369.3L360.17 281.402V273.002C360.17 273.002 353.66 272.602 354.43 283.602C355.2 294.602 354.37 291.792 354.37 291.792C354.37 291.792 340.56 291.852 339.37 293.052C338.53 293.922 338.16 307.642 338.01 315.052C337.921 316.847 338.435 318.62 339.47 320.089C340.504 321.559 342 322.64 343.72 323.162C344.191 323.303 344.678 323.384 345.17 323.402C348.61 323.402 366.17 320.602 366.17 320.602H373.44L373.51 294.232Z" fill="#F5F5F5"/>
<path d="M385.56 291.922L382.97 320.702H375.76V292.502L385.56 291.922Z" fill="#F5F5F5"/>
</g>
<defs>
<clipPath id="clip0_156_3695">
<rect width="730" height="1024" fill="white"/>
</clipPath>
</defs>
</svg>
