<svg width="138" height="24" viewBox="0 0 138 24" fill="none" xmlns="http://www.w3.org/2000/svg">
<path d="M134.413 23.9592C132.393 23.9592 130.899 23.4862 129.931 22.5403C128.985 21.5729 128.512 20.1326 128.512 18.2193V3.45017L132.608 1.93457V18.316C132.608 19.1114 132.823 19.7026 133.253 20.0896C133.683 20.4765 134.36 20.67 135.284 20.67C135.65 20.67 135.972 20.6485 136.252 20.6055C136.552 20.541 136.832 20.4658 137.09 20.3798V23.54C136.832 23.669 136.466 23.7657 135.994 23.8302C135.521 23.9162 134.994 23.9592 134.413 23.9592ZM125.352 10.3833V7.19081H137.09V10.3833H125.352Z" fill="#1EAFB3"/>
<path d="M115.647 23.9585C113.906 23.9585 112.369 23.5931 111.036 22.8621C109.724 22.1312 108.703 21.1208 107.972 19.8309C107.241 18.5196 106.876 17.0255 106.876 15.3486C106.876 13.6718 107.241 12.1992 107.972 10.9308C108.703 9.66241 109.724 8.6735 111.036 7.96407C112.369 7.23314 113.906 6.86768 115.647 6.86768C117.41 6.86768 118.947 7.23314 120.258 7.96407C121.57 8.6735 122.591 9.66241 123.322 10.9308C124.053 12.1992 124.418 13.6718 124.418 15.3486C124.418 17.0255 124.042 18.5196 123.29 19.8309C122.559 21.1208 121.538 22.1312 120.226 22.8621C118.915 23.5931 117.388 23.9585 115.647 23.9585Z" fill="#1EAFB3"/>
<path d="M90.5075 23.6372V20.5415H96.9891C98.1715 20.5415 99.0851 20.219 99.7301 19.5741C100.375 18.9077 100.697 18.0047 100.697 16.8654C100.697 15.683 100.353 14.7478 99.6656 14.0599C98.9776 13.3719 98.021 13.028 96.7956 13.028H90.5075V9.93227H96.5054C97.6663 9.93227 98.5584 9.6528 99.1819 9.09385C99.8053 8.5349 100.117 7.72873 100.117 6.67533C100.117 5.64343 99.8161 4.85876 99.2141 4.32131C98.6337 3.78386 97.7737 3.51514 96.6344 3.51514H90.5075V0.419434H97.4083C99.4936 0.419434 101.16 0.946133 102.407 1.99953C103.675 3.03143 104.309 4.43955 104.309 6.22388C104.309 7.34177 104.04 8.31992 103.503 9.15834C102.987 9.97526 102.288 10.6095 101.407 11.0609C100.525 11.5124 99.5258 11.7381 98.4079 11.7381L98.5692 11.0609C99.7516 11.0609 100.826 11.3296 101.794 11.8671C102.761 12.383 103.524 13.114 104.083 14.0599C104.664 15.0058 104.954 16.1022 104.954 17.3491C104.954 18.6174 104.653 19.7246 104.051 20.6705C103.471 21.6164 102.643 22.3473 101.568 22.8633C100.515 23.3792 99.2679 23.6372 97.8275 23.6372H90.5075ZM87.2183 23.6372V0.419434H91.4104V23.6372H87.2183Z" fill="#1EAFB3"/>
<path d="M76.874 23.9585C75.2186 23.9585 73.7568 23.5931 72.4884 22.8621C71.2415 22.1312 70.2526 21.1208 69.5217 19.8309C68.8122 18.5196 68.4575 17.0362 68.4575 15.3809C68.4575 13.7255 68.8122 12.2637 69.5217 10.9953C70.2526 9.7054 71.2415 8.695 72.4884 7.96407C73.7568 7.23314 75.2186 6.86768 76.874 6.86768C78.2283 6.86768 79.4537 7.12565 80.5501 7.6416C81.6465 8.13605 82.5494 8.84549 83.2588 9.7699C83.9683 10.6728 84.4197 11.7262 84.6132 12.9301H80.7113C80.4749 12.0487 80.0234 11.3607 79.357 10.8663C78.6905 10.3718 77.8844 10.1246 76.9385 10.1246C76.057 10.1246 75.2939 10.3396 74.6489 10.7696C74.0255 11.1995 73.5418 11.8122 73.1978 12.6076C72.8538 13.403 72.6819 14.3275 72.6819 15.3809C72.6819 16.4558 72.8538 17.3909 73.1978 18.1863C73.5418 18.9818 74.0362 19.6052 74.6812 20.0567C75.3261 20.4866 76.0785 20.7016 76.9385 20.7016C77.8844 20.7016 78.6905 20.4544 79.357 19.9599C80.0234 19.4655 80.4749 18.7775 80.7113 17.8961H84.6132C84.4197 19.1 83.9575 20.1641 83.2266 21.0886C82.5172 21.9915 81.6143 22.7009 80.5179 23.2169C79.443 23.7113 78.2283 23.9585 76.874 23.9585Z" fill="black"/>
<path d="M61.4283 23.637V7.19106H65.4915V23.637H61.4283ZM61.2349 4.48232V0H65.6527V4.48232H61.2349Z" fill="black"/>
<path d="M41.8135 23.6361V7.19014H45.7798V11.0598H45.8766V23.6361H41.8135ZM53.3579 23.6361V13.2526C53.3579 12.2422 53.0999 11.479 52.5839 10.963C52.068 10.4471 51.3156 10.1891 50.3267 10.1891C49.4667 10.1891 48.6928 10.3826 48.0049 10.7696C47.3384 11.1565 46.8117 11.694 46.4248 12.3819C46.0593 13.0698 45.8766 13.8653 45.8766 14.7682L45.4574 10.834C46.0163 9.63016 46.8332 8.6735 47.9081 7.96407C48.983 7.23314 50.2729 6.86768 51.7778 6.86768C53.5621 6.86768 54.9487 7.37288 55.9376 8.38328C56.948 9.39368 57.4532 10.7373 57.4532 12.4141V23.6361H53.3579Z" fill="black"/>
<path d="M33.4362 23.637V7.19106H37.4993V23.637H33.4362ZM33.2427 4.48232V0H37.6605V4.48232H33.2427Z" fill="black"/>
<path d="M25.0591 23.6372V0.419434H29.1222V23.6372H25.0591Z" fill="black"/>
<path d="M11.4154 23.9589C9.76006 23.9589 8.23371 23.6687 6.83634 23.0882C5.46047 22.4863 4.25659 21.6479 3.22469 20.573C2.19279 19.4981 1.39737 18.2297 0.838419 16.7678C0.279473 15.306 0 13.7044 0 11.963C0 10.2217 0.279473 8.63087 0.838419 7.19051C1.39737 5.75015 2.18204 4.50327 3.19244 3.44987C4.22434 2.37497 5.42823 1.5473 6.8041 0.966858C8.20146 0.386414 9.73856 0.0961914 11.4154 0.0961914C13.2642 0.0961914 14.9303 0.461656 16.4137 1.19259C17.897 1.92351 19.1117 2.95542 20.0576 4.28829C21.025 5.59966 21.6162 7.14751 21.8312 8.93184H17.7035C17.4456 7.19051 16.7469 5.85764 15.6075 4.93323C14.4681 3.98732 13.0815 3.51436 11.4476 3.51436C10.0073 3.51436 8.74966 3.85833 7.67476 4.54626C6.59987 5.2342 5.76145 6.21235 5.1595 7.48073C4.55756 8.72761 4.25659 10.211 4.25659 11.9308C4.25659 13.6936 4.55756 15.22 5.1595 16.5099C5.76145 17.7782 6.61062 18.7671 7.70701 19.4766C8.8034 20.186 10.061 20.5407 11.4799 20.5407C13.0707 20.5407 14.4359 20.0785 15.5753 19.1541C16.7146 18.2082 17.4348 16.8753 17.7358 15.1555H21.8956C21.6377 16.9183 21.025 18.4662 20.0576 19.799C19.1117 21.1319 17.897 22.1638 16.4137 22.8947C14.9303 23.6042 13.2642 23.9589 11.4154 23.9589Z" fill="black"/>
<path d="M112.057 10.8955L112.601 11.8761C112.62 11.8909 112.685 11.9378 112.779 11.9354C112.864 11.9331 112.922 11.8917 112.943 11.8761C113.443 11.538 114.111 11.1578 114.942 10.8595C116.209 10.4052 117.334 10.3286 118.094 10.3419C117.504 10.1132 116.584 9.84224 115.44 9.84302C113.958 9.84458 112.802 10.3005 112.135 10.6363C112.041 10.6839 112.005 10.8026 112.057 10.8962V10.8955Z" fill="white"/>
<path d="M118.964 22.5728L118.466 21.5672C118.448 21.5516 118.385 21.5017 118.29 21.4993C118.205 21.4978 118.145 21.536 118.124 21.5501C117.61 21.8639 116.924 22.2106 116.08 22.4682C114.793 22.8601 113.667 22.882 112.907 22.832C113.486 23.0897 114.393 23.4051 115.536 23.4598C117.016 23.5308 118.192 23.1311 118.873 22.8289C118.97 22.786 119.011 22.6689 118.963 22.5728H118.964Z" fill="white"/>
<path d="M118.635 11.0938C118.848 11.0852 119.113 11.0993 119.407 11.1719C119.592 11.2179 119.758 11.2797 119.903 11.3477C120.218 11.4944 120.494 11.7149 120.72 11.9834C120.946 12.252 121.176 12.569 121.392 12.957C121.587 13.306 121.727 13.6371 121.83 13.9268C121.926 14.1539 122.033 14.4784 122.069 14.8779C122.079 14.9943 122.083 15.1071 122.081 15.2148C122.07 15.8456 121.81 16.4447 121.378 16.8936C121 17.287 120.572 17.6958 120.091 18.1064C119.509 18.6038 118.944 19.0223 118.42 19.3721C117.643 19.9256 116.657 20.5301 115.463 21.0625C114.549 21.4708 113.694 21.7556 112.943 21.957C112.702 22.0296 112.199 22.1452 111.583 22.0117C111.546 22.0039 111.51 21.9957 111.475 21.9863C110.857 21.8262 110.336 21.4017 110.012 20.8389C109.722 20.3331 109.431 19.8271 109.14 19.3213C108.904 18.9091 108.778 18.4368 108.801 17.959C108.809 17.8061 108.829 17.6423 108.87 17.4707C108.908 17.3034 108.96 17.1518 109.018 17.0176L109.077 16.8906C109.201 16.6362 109.373 16.41 109.575 16.2148C110.081 15.7238 110.657 15.2106 111.306 14.6953C111.997 14.1472 112.665 13.6825 113.286 13.2891C113.773 12.9682 114.325 12.6439 114.943 12.3379C116.121 11.7548 117.23 11.3916 118.175 11.1621C118.327 11.1254 118.48 11.1 118.635 11.0938ZM113.06 15.4199C112.514 15.4199 112.071 15.8621 112.071 16.4082C112.071 16.9544 112.514 17.3975 113.06 17.3975C113.606 17.3975 114.049 16.9544 114.049 16.4082C114.049 15.8621 113.606 15.4199 113.06 15.4199ZM117.623 13.0625C117.077 13.0627 116.634 13.5048 116.634 14.0508C116.634 14.5969 117.076 15.0399 117.623 15.04C118.169 15.04 118.612 14.597 118.612 14.0508C118.612 13.5047 118.169 13.0625 117.623 13.0625Z" fill="white"/>
</svg>
